<svg width="304" height="206" viewBox="0 0 304 206" fill="none" xmlns="http://www.w3.org/2000/svg">
<rect x="0.5" y="0.5" width="303" height="205" rx="4.5" fill="#272727" stroke="black"/>
<rect x="37" y="66" width="199" height="84" rx="8" fill="#848484"/>
<rect x="37" y="23" width="76" height="21" rx="8" fill="#848484"/>
<rect x="119" y="23" width="76" height="21" rx="8" fill="#848484"/>
<rect x="47" y="77" width="179" height="21" rx="8" fill="#B7B7B7"/>
<path d="M39.1 185V171H45C46.4933 171 47.8067 171.293 48.94 171.88C50.0867 172.467 50.9733 173.287 51.6 174.34C52.24 175.393 52.56 176.613 52.56 178C52.56 179.387 52.24 180.607 51.6 181.66C50.9733 182.713 50.0867 183.533 48.94 184.12C47.8067 184.707 46.4933 185 45 185H39.1ZM41.1 183.26H44.88C46.04 183.26 47.04 183.04 47.88 182.6C48.7333 182.16 49.3933 181.547 49.86 180.76C50.3267 179.96 50.56 179.04 50.56 178C50.56 176.947 50.3267 176.027 49.86 175.24C49.3933 174.453 48.7333 173.84 47.88 173.4C47.04 172.96 46.04 172.74 44.88 172.74H41.1V183.26ZM61.9234 185V182.76L61.8234 182.34V178.52C61.8234 177.707 61.5834 177.08 61.1034 176.64C60.6368 176.187 59.9301 175.96 58.9834 175.96C58.3568 175.96 57.7434 176.067 57.1434 176.28C56.5434 176.48 56.0368 176.753 55.6234 177.1L54.8234 175.66C55.3701 175.22 56.0234 174.887 56.7834 174.66C57.5568 174.42 58.3634 174.3 59.2034 174.3C60.6568 174.3 61.7768 174.653 62.5634 175.36C63.3501 176.067 63.7434 177.147 63.7434 178.6V185H61.9234ZM58.4434 185.12C57.6568 185.12 56.9634 184.987 56.3634 184.72C55.7768 184.453 55.3234 184.087 55.0034 183.62C54.6834 183.14 54.5234 182.6 54.5234 182C54.5234 181.427 54.6568 180.907 54.9234 180.44C55.2034 179.973 55.6501 179.6 56.2634 179.32C56.8901 179.04 57.7301 178.9 58.7834 178.9H62.1434V180.28H58.8634C57.9034 180.28 57.2568 180.44 56.9234 180.76C56.5901 181.08 56.4234 181.467 56.4234 181.92C56.4234 182.44 56.6301 182.86 57.0434 183.18C57.4568 183.487 58.0301 183.64 58.7634 183.64C59.4834 183.64 60.1101 183.48 60.6434 183.16C61.1901 182.84 61.5834 182.373 61.8234 181.76L62.2034 183.08C61.9501 183.707 61.5034 184.207 60.8634 184.58C60.2234 184.94 59.4168 185.12 58.4434 185.12ZM67.2966 185V174.4H69.1366V177.28L68.9566 176.56C69.2499 175.827 69.7432 175.267 70.4366 174.88C71.1299 174.493 71.9832 174.3 72.9966 174.3V176.16C72.9166 176.147 72.8366 176.14 72.7566 176.14C72.6899 176.14 72.6232 176.14 72.5566 176.14C71.5299 176.14 70.7166 176.447 70.1166 177.06C69.5166 177.673 69.2166 178.56 69.2166 179.72V185H67.2966ZM76.923 182.44L76.963 179.98L83.063 174.4H85.383L80.703 179L79.663 179.88L76.923 182.44ZM75.363 185V170.16H77.283V185H75.363ZM83.463 185L79.303 179.84L80.543 178.3L85.823 185H83.463ZM96.1183 185V172.74H91.3183V171H102.898V172.74H98.0983V185H96.1183ZM104.543 185V174.4H106.383V177.28L106.203 176.56C106.496 175.827 106.989 175.267 107.683 174.88C108.376 174.493 109.229 174.3 110.243 174.3V176.16C110.163 176.147 110.083 176.14 110.003 176.14C109.936 176.14 109.869 176.14 109.803 176.14C108.776 176.14 107.963 176.447 107.363 177.06C106.763 177.673 106.463 178.56 106.463 179.72V185H104.543ZM112.609 185V174.4H114.529V185H112.609ZM113.569 172.36C113.196 172.36 112.882 172.24 112.629 172C112.389 171.76 112.269 171.467 112.269 171.12C112.269 170.76 112.389 170.46 112.629 170.22C112.882 169.98 113.196 169.86 113.569 169.86C113.942 169.86 114.249 169.98 114.489 170.22C114.742 170.447 114.869 170.733 114.869 171.08C114.869 171.44 114.749 171.747 114.509 172C114.269 172.24 113.956 172.36 113.569 172.36ZM121.835 185.12C120.768 185.12 119.942 184.833 119.355 184.26C118.768 183.687 118.475 182.867 118.475 181.8V172.08H120.395V181.72C120.395 182.293 120.535 182.733 120.815 183.04C121.108 183.347 121.522 183.5 122.055 183.5C122.655 183.5 123.155 183.333 123.555 183L124.155 184.38C123.862 184.633 123.508 184.82 123.095 184.94C122.695 185.06 122.275 185.12 121.835 185.12ZM116.675 175.98V174.4H123.435V175.98H116.675ZM133.056 185V182.76L132.956 182.34V178.52C132.956 177.707 132.716 177.08 132.236 176.64C131.77 176.187 131.063 175.96 130.116 175.96C129.49 175.96 128.876 176.067 128.276 176.28C127.676 176.48 127.17 176.753 126.756 177.1L125.956 175.66C126.503 175.22 127.156 174.887 127.916 174.66C128.69 174.42 129.496 174.3 130.336 174.3C131.79 174.3 132.91 174.653 133.696 175.36C134.483 176.067 134.876 177.147 134.876 178.6V185H133.056ZM129.576 185.12C128.79 185.12 128.096 184.987 127.496 184.72C126.91 184.453 126.456 184.087 126.136 183.62C125.816 183.14 125.656 182.6 125.656 182C125.656 181.427 125.79 180.907 126.056 180.44C126.336 179.973 126.783 179.6 127.396 179.32C128.023 179.04 128.863 178.9 129.916 178.9H133.276V180.28H129.996C129.036 180.28 128.39 180.44 128.056 180.76C127.723 181.08 127.556 181.467 127.556 181.92C127.556 182.44 127.763 182.86 128.176 183.18C128.59 183.487 129.163 183.64 129.896 183.64C130.616 183.64 131.243 183.48 131.776 183.16C132.323 182.84 132.716 182.373 132.956 181.76L133.336 183.08C133.083 183.707 132.636 184.207 131.996 184.58C131.356 184.94 130.55 185.12 129.576 185.12ZM144.089 174.3C144.956 174.3 145.716 174.467 146.369 174.8C147.036 175.133 147.556 175.64 147.929 176.32C148.303 177 148.489 177.86 148.489 178.9V185H146.569V179.12C146.569 178.093 146.316 177.32 145.809 176.8C145.316 176.28 144.616 176.02 143.709 176.02C143.029 176.02 142.436 176.153 141.929 176.42C141.423 176.687 141.029 177.08 140.749 177.6C140.483 178.12 140.349 178.767 140.349 179.54V185H138.429V174.4H140.269V177.26L139.969 176.5C140.316 175.807 140.849 175.267 141.569 174.88C142.289 174.493 143.129 174.3 144.089 174.3Z" fill="white"/>
<rect x="253" y="83" width="25" height="25" rx="3" fill="#00BBB6"/>
<rect x="253" y="115" width="25" height="25" rx="3" fill="#FF3030"/>
</svg>
