<svg width="304" height="206" viewBox="0 0 304 206" fill="none" xmlns="http://www.w3.org/2000/svg">
<rect x="0.5" y="0.5" width="303" height="205" rx="4.5" fill="#272727" stroke="black"/>
<rect x="37" y="66" width="199" height="84" rx="8" fill="#848484"/>
<rect x="37" y="23" width="76" height="21" rx="8" fill="#848484"/>
<rect x="119" y="23" width="76" height="21" rx="8" fill="#848484"/>
<rect x="47" y="77" width="179" height="21" rx="8" fill="#B7B7B7"/>
<path d="M39.1 185V171H45C46.4933 171 47.8067 171.293 48.94 171.88C50.0867 172.467 50.9733 173.287 51.6 174.34C52.24 175.393 52.56 176.613 52.56 178C52.56 179.387 52.24 180.607 51.6 181.66C50.9733 182.713 50.0867 183.533 48.94 184.12C47.8067 184.707 46.4933 185 45 185H39.1ZM41.1 183.26H44.88C46.04 183.26 47.04 183.04 47.88 182.6C48.7333 182.16 49.3933 181.547 49.86 180.76C50.3267 179.96 50.56 179.04 50.56 178C50.56 176.947 50.3267 176.027 49.86 175.24C49.3933 174.453 48.7333 173.84 47.88 173.4C47.04 172.96 46.04 172.74 44.88 172.74H41.1V183.26ZM61.9234 185V182.76L61.8234 182.34V178.52C61.8234 177.707 61.5834 177.08 61.1034 176.64C60.6368 176.187 59.9301 175.96 58.9834 175.96C58.3568 175.96 57.7434 176.067 57.1434 176.28C56.5434 176.48 56.0368 176.753 55.6234 177.1L54.8234 175.66C55.3701 175.22 56.0234 174.887 56.7834 174.66C57.5568 174.42 58.3634 174.3 59.2034 174.3C60.6568 174.3 61.7768 174.653 62.5634 175.36C63.3501 176.067 63.7434 177.147 63.7434 178.6V185H61.9234ZM58.4434 185.12C57.6568 185.12 56.9634 184.987 56.3634 184.72C55.7768 184.453 55.3234 184.087 55.0034 183.62C54.6834 183.14 54.5234 182.6 54.5234 182C54.5234 181.427 54.6568 180.907 54.9234 180.44C55.2034 179.973 55.6501 179.6 56.2634 179.32C56.8901 179.04 57.7301 178.9 58.7834 178.9H62.1434V180.28H58.8634C57.9034 180.28 57.2568 180.44 56.9234 180.76C56.5901 181.08 56.4234 181.467 56.4234 181.92C56.4234 182.44 56.6301 182.86 57.0434 183.18C57.4568 183.487 58.0301 183.64 58.7634 183.64C59.4834 183.64 60.1101 183.48 60.6434 183.16C61.1901 182.84 61.5834 182.373 61.8234 181.76L62.2034 183.08C61.9501 183.707 61.5034 184.207 60.8634 184.58C60.2234 184.94 59.4168 185.12 58.4434 185.12ZM67.2966 185V174.4H69.1366V177.28L68.9566 176.56C69.2499 175.827 69.7432 175.267 70.4366 174.88C71.1299 174.493 71.9832 174.3 72.9966 174.3V176.16C72.9166 176.147 72.8366 176.14 72.7566 176.14C72.6899 176.14 72.6232 176.14 72.5566 176.14C71.5299 176.14 70.7166 176.447 70.1166 177.06C69.5166 177.673 69.2166 178.56 69.2166 179.72V185H67.2966ZM76.923 182.44L76.963 179.98L83.063 174.4H85.383L80.703 179L79.663 179.88L76.923 182.44ZM75.363 185V170.16H77.283V185H75.363ZM83.463 185L79.303 179.84L80.543 178.3L85.823 185H83.463ZM93.3383 185V171H99.2383C100.732 171 102.045 171.293 103.178 171.88C104.325 172.467 105.212 173.287 105.838 174.34C106.478 175.393 106.798 176.613 106.798 178C106.798 179.387 106.478 180.607 105.838 181.66C105.212 182.713 104.325 183.533 103.178 184.12C102.045 184.707 100.732 185 99.2383 185H93.3383ZM95.3383 183.26H99.1183C100.278 183.26 101.278 183.04 102.118 182.6C102.972 182.16 103.632 181.547 104.098 180.76C104.565 179.96 104.798 179.04 104.798 178C104.798 176.947 104.565 176.027 104.098 175.24C103.632 174.453 102.972 173.84 102.118 173.4C101.278 172.96 100.278 172.74 99.1183 172.74H95.3383V183.26ZM114.302 185.12C113.168 185.12 112.168 184.887 111.302 184.42C110.448 183.953 109.782 183.313 109.302 182.5C108.835 181.687 108.602 180.753 108.602 179.7C108.602 178.647 108.828 177.713 109.282 176.9C109.748 176.087 110.382 175.453 111.182 175C111.995 174.533 112.908 174.3 113.922 174.3C114.948 174.3 115.855 174.527 116.642 174.98C117.428 175.433 118.042 176.073 118.482 176.9C118.935 177.713 119.162 178.667 119.162 179.76C119.162 179.84 119.155 179.933 119.142 180.04C119.142 180.147 119.135 180.247 119.122 180.34H110.102V178.96H118.122L117.342 179.44C117.355 178.76 117.215 178.153 116.922 177.62C116.628 177.087 116.222 176.673 115.702 176.38C115.195 176.073 114.602 175.92 113.922 175.92C113.255 175.92 112.662 176.073 112.142 176.38C111.622 176.673 111.215 177.093 110.922 177.64C110.628 178.173 110.482 178.787 110.482 179.48V179.8C110.482 180.507 110.642 181.14 110.962 181.7C111.295 182.247 111.755 182.673 112.342 182.98C112.928 183.287 113.602 183.44 114.362 183.44C114.988 183.44 115.555 183.333 116.062 183.12C116.582 182.907 117.035 182.587 117.422 182.16L118.482 183.4C118.002 183.96 117.402 184.387 116.682 184.68C115.975 184.973 115.182 185.12 114.302 185.12ZM126.288 185.12C125.381 185.12 124.581 184.953 123.888 184.62C123.208 184.287 122.674 183.78 122.288 183.1C121.914 182.407 121.728 181.54 121.728 180.5V174.4H123.648V180.28C123.648 181.32 123.894 182.1 124.388 182.62C124.894 183.14 125.601 183.4 126.508 183.4C127.174 183.4 127.754 183.267 128.248 183C128.741 182.72 129.121 182.32 129.388 181.8C129.654 181.267 129.788 180.627 129.788 179.88V174.4H131.708V185H129.888V182.14L130.188 182.9C129.841 183.607 129.321 184.153 128.628 184.54C127.934 184.927 127.154 185.12 126.288 185.12ZM139.003 185.12C137.936 185.12 137.11 184.833 136.523 184.26C135.936 183.687 135.643 182.867 135.643 181.8V172.08H137.563V181.72C137.563 182.293 137.703 182.733 137.983 183.04C138.276 183.347 138.69 183.5 139.223 183.5C139.823 183.5 140.323 183.333 140.723 183L141.323 184.38C141.03 184.633 140.676 184.82 140.263 184.94C139.863 185.06 139.443 185.12 139.003 185.12ZM133.843 175.98V174.4H140.603V175.98H133.843ZM150.224 185V182.76L150.124 182.34V178.52C150.124 177.707 149.884 177.08 149.404 176.64C148.938 176.187 148.231 175.96 147.284 175.96C146.658 175.96 146.044 176.067 145.444 176.28C144.844 176.48 144.338 176.753 143.924 177.1L143.124 175.66C143.671 175.22 144.324 174.887 145.084 174.66C145.858 174.42 146.664 174.3 147.504 174.3C148.958 174.3 150.078 174.653 150.864 175.36C151.651 176.067 152.044 177.147 152.044 178.6V185H150.224ZM146.744 185.12C145.958 185.12 145.264 184.987 144.664 184.72C144.078 184.453 143.624 184.087 143.304 183.62C142.984 183.14 142.824 182.6 142.824 182C142.824 181.427 142.958 180.907 143.224 180.44C143.504 179.973 143.951 179.6 144.564 179.32C145.191 179.04 146.031 178.9 147.084 178.9H150.444V180.28H147.164C146.204 180.28 145.558 180.44 145.224 180.76C144.891 181.08 144.724 181.467 144.724 181.92C144.724 182.44 144.931 182.86 145.344 183.18C145.758 183.487 146.331 183.64 147.064 183.64C147.784 183.64 148.411 183.48 148.944 183.16C149.491 182.84 149.884 182.373 150.124 181.76L150.504 183.08C150.251 183.707 149.804 184.207 149.164 184.58C148.524 184.94 147.718 185.12 146.744 185.12ZM161.257 174.3C162.124 174.3 162.884 174.467 163.537 174.8C164.204 175.133 164.724 175.64 165.097 176.32C165.471 177 165.657 177.86 165.657 178.9V185H163.737V179.12C163.737 178.093 163.484 177.32 162.977 176.8C162.484 176.28 161.784 176.02 160.877 176.02C160.197 176.02 159.604 176.153 159.097 176.42C158.591 176.687 158.197 177.08 157.917 177.6C157.651 178.12 157.517 178.767 157.517 179.54V185H155.597V174.4H157.437V177.26L157.137 176.5C157.484 175.807 158.017 175.267 158.737 174.88C159.457 174.493 160.297 174.3 161.257 174.3Z" fill="white"/>
<rect x="253" y="83" width="25" height="25" rx="3" fill="#1A68B7"/>
<rect x="253" y="115" width="25" height="25" rx="3" fill="#FFB51B"/>
</svg>
