<svg width="304" height="206" viewBox="0 0 304 206" fill="none" xmlns="http://www.w3.org/2000/svg">
<rect x="0.5" y="0.5" width="303" height="205" rx="4.5" fill="#272727" stroke="black"/>
<rect x="37" y="66" width="216" height="84" rx="8" fill="#848484"/>
<rect x="37" y="23" width="76" height="21" rx="8" fill="#848484"/>
<rect x="119" y="23" width="76" height="21" rx="8" fill="#848484"/>
<rect x="48" y="77" width="194" height="21" rx="8" fill="#B7B7B7"/>
<path d="M39.1 185V171H45C46.4933 171 47.8067 171.293 48.94 171.88C50.0867 172.467 50.9733 173.287 51.6 174.34C52.24 175.393 52.56 176.613 52.56 178C52.56 179.387 52.24 180.607 51.6 181.66C50.9733 182.713 50.0867 183.533 48.94 184.12C47.8067 184.707 46.4933 185 45 185H39.1ZM41.1 183.26H44.88C46.04 183.26 47.04 183.04 47.88 182.6C48.7333 182.16 49.3933 181.547 49.86 180.76C50.3267 179.96 50.56 179.04 50.56 178C50.56 176.947 50.3267 176.027 49.86 175.24C49.3933 174.453 48.7333 173.84 47.88 173.4C47.04 172.96 46.04 172.74 44.88 172.74H41.1V183.26ZM61.9234 185V182.76L61.8234 182.34V178.52C61.8234 177.707 61.5834 177.08 61.1034 176.64C60.6368 176.187 59.9301 175.96 58.9834 175.96C58.3568 175.96 57.7434 176.067 57.1434 176.28C56.5434 176.48 56.0368 176.753 55.6234 177.1L54.8234 175.66C55.3701 175.22 56.0234 174.887 56.7834 174.66C57.5568 174.42 58.3634 174.3 59.2034 174.3C60.6568 174.3 61.7768 174.653 62.5634 175.36C63.3501 176.067 63.7434 177.147 63.7434 178.6V185H61.9234ZM58.4434 185.12C57.6568 185.12 56.9634 184.987 56.3634 184.72C55.7768 184.453 55.3234 184.087 55.0034 183.62C54.6834 183.14 54.5234 182.6 54.5234 182C54.5234 181.427 54.6568 180.907 54.9234 180.44C55.2034 179.973 55.6501 179.6 56.2634 179.32C56.8901 179.04 57.7301 178.9 58.7834 178.9H62.1434V180.28H58.8634C57.9034 180.28 57.2568 180.44 56.9234 180.76C56.5901 181.08 56.4234 181.467 56.4234 181.92C56.4234 182.44 56.6301 182.86 57.0434 183.18C57.4568 183.487 58.0301 183.64 58.7634 183.64C59.4834 183.64 60.1101 183.48 60.6434 183.16C61.1901 182.84 61.5834 182.373 61.8234 181.76L62.2034 183.08C61.9501 183.707 61.5034 184.207 60.8634 184.58C60.2234 184.94 59.4168 185.12 58.4434 185.12ZM67.2966 185V174.4H69.1366V177.28L68.9566 176.56C69.2499 175.827 69.7432 175.267 70.4366 174.88C71.1299 174.493 71.9832 174.3 72.9966 174.3V176.16C72.9166 176.147 72.8366 176.14 72.7566 176.14C72.6899 176.14 72.6232 176.14 72.5566 176.14C71.5299 176.14 70.7166 176.447 70.1166 177.06C69.5166 177.673 69.2166 178.56 69.2166 179.72V185H67.2966ZM76.923 182.44L76.963 179.98L83.063 174.4H85.383L80.703 179L79.663 179.88L76.923 182.44ZM75.363 185V170.16H77.283V185H75.363ZM83.463 185L79.303 179.84L80.543 178.3L85.823 185H83.463ZM93.3383 185V171H94.9783L101.258 181.58H100.378L106.578 171H108.218L108.238 185H106.318L106.298 174.02H106.758L101.238 183.3H100.318L94.7583 174.02H95.2583V185H93.3383ZM116.7 185.12C115.633 185.12 114.687 184.887 113.86 184.42C113.033 183.953 112.38 183.313 111.9 182.5C111.42 181.673 111.18 180.74 111.18 179.7C111.18 178.647 111.42 177.713 111.9 176.9C112.38 176.087 113.033 175.453 113.86 175C114.687 174.533 115.633 174.3 116.7 174.3C117.753 174.3 118.693 174.533 119.52 175C120.36 175.453 121.013 176.087 121.48 176.9C121.96 177.7 122.2 178.633 122.2 179.7C122.2 180.753 121.96 181.687 121.48 182.5C121.013 183.313 120.36 183.953 119.52 184.42C118.693 184.887 117.753 185.12 116.7 185.12ZM116.7 183.44C117.38 183.44 117.987 183.287 118.52 182.98C119.067 182.673 119.493 182.24 119.8 181.68C120.107 181.107 120.26 180.447 120.26 179.7C120.26 178.94 120.107 178.287 119.8 177.74C119.493 177.18 119.067 176.747 118.52 176.44C117.987 176.133 117.38 175.98 116.7 175.98C116.02 175.98 115.413 176.133 114.88 176.44C114.347 176.747 113.92 177.18 113.6 177.74C113.28 178.287 113.12 178.94 113.12 179.7C113.12 180.447 113.28 181.107 113.6 181.68C113.92 182.24 114.347 182.673 114.88 182.98C115.413 183.287 116.02 183.44 116.7 183.44ZM129.235 185.12C128.208 185.12 127.288 184.893 126.475 184.44C125.675 183.987 125.042 183.353 124.575 182.54C124.108 181.727 123.875 180.78 123.875 179.7C123.875 178.62 124.108 177.68 124.575 176.88C125.042 176.067 125.675 175.433 126.475 174.98C127.288 174.527 128.208 174.3 129.235 174.3C130.128 174.3 130.935 174.5 131.655 174.9C132.375 175.3 132.948 175.9 133.375 176.7C133.815 177.5 134.035 178.5 134.035 179.7C134.035 180.9 133.822 181.9 133.395 182.7C132.982 183.5 132.415 184.107 131.695 184.52C130.975 184.92 130.155 185.12 129.235 185.12ZM129.395 183.44C130.062 183.44 130.662 183.287 131.195 182.98C131.742 182.673 132.168 182.24 132.475 181.68C132.795 181.107 132.955 180.447 132.955 179.7C132.955 178.94 132.795 178.287 132.475 177.74C132.168 177.18 131.742 176.747 131.195 176.44C130.662 176.133 130.062 175.98 129.395 175.98C128.715 175.98 128.108 176.133 127.575 176.44C127.042 176.747 126.615 177.18 126.295 177.74C125.975 178.287 125.815 178.94 125.815 179.7C125.815 180.447 125.975 181.107 126.295 181.68C126.615 182.24 127.042 182.673 127.575 182.98C128.108 183.287 128.715 183.44 129.395 183.44ZM133.015 185V182.14L133.135 179.68L132.935 177.22V170.16H134.855V185H133.015ZM143.208 185.12C142.075 185.12 141.075 184.887 140.208 184.42C139.355 183.953 138.688 183.313 138.208 182.5C137.741 181.687 137.508 180.753 137.508 179.7C137.508 178.647 137.735 177.713 138.188 176.9C138.655 176.087 139.288 175.453 140.088 175C140.901 174.533 141.815 174.3 142.828 174.3C143.855 174.3 144.761 174.527 145.548 174.98C146.335 175.433 146.948 176.073 147.388 176.9C147.841 177.713 148.068 178.667 148.068 179.76C148.068 179.84 148.061 179.933 148.048 180.04C148.048 180.147 148.041 180.247 148.028 180.34H139.008V178.96H147.028L146.248 179.44C146.261 178.76 146.121 178.153 145.828 177.62C145.535 177.087 145.128 176.673 144.608 176.38C144.101 176.073 143.508 175.92 142.828 175.92C142.161 175.92 141.568 176.073 141.048 176.38C140.528 176.673 140.121 177.093 139.828 177.64C139.535 178.173 139.388 178.787 139.388 179.48V179.8C139.388 180.507 139.548 181.14 139.868 181.7C140.201 182.247 140.661 182.673 141.248 182.98C141.835 183.287 142.508 183.44 143.268 183.44C143.895 183.44 144.461 183.333 144.968 183.12C145.488 182.907 145.941 182.587 146.328 182.16L147.388 183.4C146.908 183.96 146.308 184.387 145.588 184.68C144.881 184.973 144.088 185.12 143.208 185.12Z" fill="white"/>
</svg>
