<svg width="304" height="206" viewBox="0 0 304 206" fill="none" xmlns="http://www.w3.org/2000/svg">
<rect width="304" height="206" rx="5" fill="white"/>
<rect x="0.5" y="0.5" width="303" height="205" rx="4.5" stroke="black" stroke-opacity="0.5"/>
<rect x="37" y="66" width="216" height="84" rx="8" fill="#E9E9E9"/>
<rect x="37" y="23" width="76" height="21" rx="8" fill="#D9D9D9"/>
<rect x="119" y="23" width="76" height="21" rx="8" fill="#D9D9D9"/>
<rect x="48" y="77" width="194" height="21" rx="8" fill="#B7B7B7"/>
<path d="M39.1 185V171H41.1V183.26H48.68V185H39.1ZM50.695 185V174.4H52.615V185H50.695ZM51.655 172.36C51.2817 172.36 50.9683 172.24 50.715 172C50.475 171.76 50.355 171.467 50.355 171.12C50.355 170.76 50.475 170.46 50.715 170.22C50.9683 169.98 51.2817 169.86 51.655 169.86C52.0283 169.86 52.335 169.98 52.575 170.22C52.8283 170.447 52.955 170.733 52.955 171.08C52.955 171.44 52.835 171.747 52.595 172C52.355 172.24 52.0417 172.36 51.655 172.36ZM60.9209 189C59.9476 189 59.0009 188.86 58.0809 188.58C57.1743 188.313 56.4343 187.927 55.8609 187.42L56.7809 185.94C57.2743 186.367 57.8809 186.7 58.6009 186.94C59.3209 187.193 60.0743 187.32 60.8609 187.32C62.1143 187.32 63.0343 187.027 63.6209 186.44C64.2076 185.853 64.5009 184.96 64.5009 183.76V181.52L64.7009 179.42L64.6009 177.3V174.4H66.4209V183.56C66.4209 185.427 65.9543 186.8 65.0209 187.68C64.0876 188.56 62.7209 189 60.9209 189ZM60.6809 184.56C59.6543 184.56 58.7343 184.347 57.9209 183.92C57.1209 183.48 56.4809 182.873 56.0009 182.1C55.5343 181.327 55.3009 180.433 55.3009 179.42C55.3009 178.393 55.5343 177.5 56.0009 176.74C56.4809 175.967 57.1209 175.367 57.9209 174.94C58.7343 174.513 59.6543 174.3 60.6809 174.3C61.5876 174.3 62.4143 174.487 63.1609 174.86C63.9076 175.22 64.5009 175.78 64.9409 176.54C65.3943 177.3 65.6209 178.26 65.6209 179.42C65.6209 180.567 65.3943 181.52 64.9409 182.28C64.5009 183.04 63.9076 183.613 63.1609 184C62.4143 184.373 61.5876 184.56 60.6809 184.56ZM60.9009 182.88C61.6076 182.88 62.2343 182.733 62.7809 182.44C63.3276 182.147 63.7543 181.74 64.0609 181.22C64.3809 180.7 64.5409 180.1 64.5409 179.42C64.5409 178.74 64.3809 178.14 64.0609 177.62C63.7543 177.1 63.3276 176.7 62.7809 176.42C62.2343 176.127 61.6076 175.98 60.9009 175.98C60.1943 175.98 59.5609 176.127 59.0009 176.42C58.4543 176.7 58.0209 177.1 57.7009 177.62C57.3943 178.14 57.2409 178.74 57.2409 179.42C57.2409 180.1 57.3943 180.7 57.7009 181.22C58.0209 181.74 58.4543 182.147 59.0009 182.44C59.5609 182.733 60.1943 182.88 60.9009 182.88ZM75.7495 174.3C76.6162 174.3 77.3762 174.467 78.0295 174.8C78.6962 175.133 79.2162 175.64 79.5895 176.32C79.9629 177 80.1495 177.86 80.1495 178.9V185H78.2295V179.12C78.2295 178.093 77.9762 177.32 77.4695 176.8C76.9762 176.28 76.2762 176.02 75.3695 176.02C74.6895 176.02 74.0962 176.153 73.5895 176.42C73.0829 176.687 72.6895 177.08 72.4095 177.6C72.1429 178.12 72.0095 178.767 72.0095 179.54V185H70.0895V170.16H72.0095V177.26L71.6295 176.5C71.9762 175.807 72.5095 175.267 73.2295 174.88C73.9495 174.493 74.7895 174.3 75.7495 174.3ZM87.3428 185.12C86.2761 185.12 85.4495 184.833 84.8628 184.26C84.2761 183.687 83.9828 182.867 83.9828 181.8V172.08H85.9028V181.72C85.9028 182.293 86.0428 182.733 86.3228 183.04C86.6161 183.347 87.0295 183.5 87.5628 183.5C88.1628 183.5 88.6628 183.333 89.0628 183L89.6628 184.38C89.3695 184.633 89.0161 184.82 88.6028 184.94C88.2028 185.06 87.7828 185.12 87.3428 185.12ZM82.1828 175.98V174.4H88.9428V175.98H82.1828ZM97.6352 185V171H99.2752L105.555 181.58H104.675L110.875 171H112.515L112.535 185H110.615L110.595 174.02H111.055L105.535 183.3H104.615L99.0552 174.02H99.5552V185H97.6352ZM120.997 185.12C119.93 185.12 118.983 184.887 118.157 184.42C117.33 183.953 116.677 183.313 116.197 182.5C115.717 181.673 115.477 180.74 115.477 179.7C115.477 178.647 115.717 177.713 116.197 176.9C116.677 176.087 117.33 175.453 118.157 175C118.983 174.533 119.93 174.3 120.997 174.3C122.05 174.3 122.99 174.533 123.817 175C124.657 175.453 125.31 176.087 125.777 176.9C126.257 177.7 126.497 178.633 126.497 179.7C126.497 180.753 126.257 181.687 125.777 182.5C125.31 183.313 124.657 183.953 123.817 184.42C122.99 184.887 122.05 185.12 120.997 185.12ZM120.997 183.44C121.677 183.44 122.283 183.287 122.817 182.98C123.363 182.673 123.79 182.24 124.097 181.68C124.403 181.107 124.557 180.447 124.557 179.7C124.557 178.94 124.403 178.287 124.097 177.74C123.79 177.18 123.363 176.747 122.817 176.44C122.283 176.133 121.677 175.98 120.997 175.98C120.317 175.98 119.71 176.133 119.177 176.44C118.643 176.747 118.217 177.18 117.897 177.74C117.577 178.287 117.417 178.94 117.417 179.7C117.417 180.447 117.577 181.107 117.897 181.68C118.217 182.24 118.643 182.673 119.177 182.98C119.71 183.287 120.317 183.44 120.997 183.44ZM133.532 185.12C132.505 185.12 131.585 184.893 130.772 184.44C129.972 183.987 129.339 183.353 128.872 182.54C128.405 181.727 128.172 180.78 128.172 179.7C128.172 178.62 128.405 177.68 128.872 176.88C129.339 176.067 129.972 175.433 130.772 174.98C131.585 174.527 132.505 174.3 133.532 174.3C134.425 174.3 135.232 174.5 135.952 174.9C136.672 175.3 137.245 175.9 137.672 176.7C138.112 177.5 138.332 178.5 138.332 179.7C138.332 180.9 138.119 181.9 137.692 182.7C137.279 183.5 136.712 184.107 135.992 184.52C135.272 184.92 134.452 185.12 133.532 185.12ZM133.692 183.44C134.359 183.44 134.959 183.287 135.492 182.98C136.039 182.673 136.465 182.24 136.772 181.68C137.092 181.107 137.252 180.447 137.252 179.7C137.252 178.94 137.092 178.287 136.772 177.74C136.465 177.18 136.039 176.747 135.492 176.44C134.959 176.133 134.359 175.98 133.692 175.98C133.012 175.98 132.405 176.133 131.872 176.44C131.339 176.747 130.912 177.18 130.592 177.74C130.272 178.287 130.112 178.94 130.112 179.7C130.112 180.447 130.272 181.107 130.592 181.68C130.912 182.24 131.339 182.673 131.872 182.98C132.405 183.287 133.012 183.44 133.692 183.44ZM137.312 185V182.14L137.432 179.68L137.232 177.22V170.16H139.152V185H137.312ZM147.505 185.12C146.372 185.12 145.372 184.887 144.505 184.42C143.652 183.953 142.985 183.313 142.505 182.5C142.038 181.687 141.805 180.753 141.805 179.7C141.805 178.647 142.032 177.713 142.485 176.9C142.952 176.087 143.585 175.453 144.385 175C145.198 174.533 146.112 174.3 147.125 174.3C148.152 174.3 149.058 174.527 149.845 174.98C150.632 175.433 151.245 176.073 151.685 176.9C152.138 177.713 152.365 178.667 152.365 179.76C152.365 179.84 152.358 179.933 152.345 180.04C152.345 180.147 152.338 180.247 152.325 180.34H143.305V178.96H151.325L150.545 179.44C150.558 178.76 150.418 178.153 150.125 177.62C149.832 177.087 149.425 176.673 148.905 176.38C148.398 176.073 147.805 175.92 147.125 175.92C146.458 175.92 145.865 176.073 145.345 176.38C144.825 176.673 144.418 177.093 144.125 177.64C143.832 178.173 143.685 178.787 143.685 179.48V179.8C143.685 180.507 143.845 181.14 144.165 181.7C144.498 182.247 144.958 182.673 145.545 182.98C146.132 183.287 146.805 183.44 147.565 183.44C148.192 183.44 148.758 183.333 149.265 183.12C149.785 182.907 150.238 182.587 150.625 182.16L151.685 183.4C151.205 183.96 150.605 184.387 149.885 184.68C149.178 184.973 148.385 185.12 147.505 185.12Z" fill="black"/>
</svg>
