<svg width="304" height="206" viewBox="0 0 304 206" fill="none" xmlns="http://www.w3.org/2000/svg">
<rect width="304" height="206" rx="5" fill="white"/>
<rect x="0.5" y="0.5" width="303" height="205" rx="4.5" stroke="black" stroke-opacity="0.5"/>
<rect x="37" y="66" width="199" height="84" rx="8" fill="#E9E9E9"/>
<rect x="37" y="23" width="76" height="21" rx="8" fill="#D9D9D9"/>
<rect x="119" y="23" width="76" height="21" rx="8" fill="#D9D9D9"/>
<rect x="47" y="77" width="179" height="21" rx="8" fill="#B7B7B7"/>
<path d="M39.1 185V171H41.1V183.26H48.68V185H39.1ZM50.695 185V174.4H52.615V185H50.695ZM51.655 172.36C51.2817 172.36 50.9683 172.24 50.715 172C50.475 171.76 50.355 171.467 50.355 171.12C50.355 170.76 50.475 170.46 50.715 170.22C50.9683 169.98 51.2817 169.86 51.655 169.86C52.0283 169.86 52.335 169.98 52.575 170.22C52.8283 170.447 52.955 170.733 52.955 171.08C52.955 171.44 52.835 171.747 52.595 172C52.355 172.24 52.0417 172.36 51.655 172.36ZM60.9209 189C59.9476 189 59.0009 188.86 58.0809 188.58C57.1743 188.313 56.4343 187.927 55.8609 187.42L56.7809 185.94C57.2743 186.367 57.8809 186.7 58.6009 186.94C59.3209 187.193 60.0743 187.32 60.8609 187.32C62.1143 187.32 63.0343 187.027 63.6209 186.44C64.2076 185.853 64.5009 184.96 64.5009 183.76V181.52L64.7009 179.42L64.6009 177.3V174.4H66.4209V183.56C66.4209 185.427 65.9543 186.8 65.0209 187.68C64.0876 188.56 62.7209 189 60.9209 189ZM60.6809 184.56C59.6543 184.56 58.7343 184.347 57.9209 183.92C57.1209 183.48 56.4809 182.873 56.0009 182.1C55.5343 181.327 55.3009 180.433 55.3009 179.42C55.3009 178.393 55.5343 177.5 56.0009 176.74C56.4809 175.967 57.1209 175.367 57.9209 174.94C58.7343 174.513 59.6543 174.3 60.6809 174.3C61.5876 174.3 62.4143 174.487 63.1609 174.86C63.9076 175.22 64.5009 175.78 64.9409 176.54C65.3943 177.3 65.6209 178.26 65.6209 179.42C65.6209 180.567 65.3943 181.52 64.9409 182.28C64.5009 183.04 63.9076 183.613 63.1609 184C62.4143 184.373 61.5876 184.56 60.6809 184.56ZM60.9009 182.88C61.6076 182.88 62.2343 182.733 62.7809 182.44C63.3276 182.147 63.7543 181.74 64.0609 181.22C64.3809 180.7 64.5409 180.1 64.5409 179.42C64.5409 178.74 64.3809 178.14 64.0609 177.62C63.7543 177.1 63.3276 176.7 62.7809 176.42C62.2343 176.127 61.6076 175.98 60.9009 175.98C60.1943 175.98 59.5609 176.127 59.0009 176.42C58.4543 176.7 58.0209 177.1 57.7009 177.62C57.3943 178.14 57.2409 178.74 57.2409 179.42C57.2409 180.1 57.3943 180.7 57.7009 181.22C58.0209 181.74 58.4543 182.147 59.0009 182.44C59.5609 182.733 60.1943 182.88 60.9009 182.88ZM75.7495 174.3C76.6162 174.3 77.3762 174.467 78.0295 174.8C78.6962 175.133 79.2162 175.64 79.5895 176.32C79.9629 177 80.1495 177.86 80.1495 178.9V185H78.2295V179.12C78.2295 178.093 77.9762 177.32 77.4695 176.8C76.9762 176.28 76.2762 176.02 75.3695 176.02C74.6895 176.02 74.0962 176.153 73.5895 176.42C73.0829 176.687 72.6895 177.08 72.4095 177.6C72.1429 178.12 72.0095 178.767 72.0095 179.54V185H70.0895V170.16H72.0095V177.26L71.6295 176.5C71.9762 175.807 72.5095 175.267 73.2295 174.88C73.9495 174.493 74.7895 174.3 75.7495 174.3ZM87.3428 185.12C86.2761 185.12 85.4495 184.833 84.8628 184.26C84.2761 183.687 83.9828 182.867 83.9828 181.8V172.08H85.9028V181.72C85.9028 182.293 86.0428 182.733 86.3228 183.04C86.6161 183.347 87.0295 183.5 87.5628 183.5C88.1628 183.5 88.6628 183.333 89.0628 183L89.6628 184.38C89.3695 184.633 89.0161 184.82 88.6028 184.94C88.2028 185.06 87.7828 185.12 87.3428 185.12ZM82.1828 175.98V174.4H88.9428V175.98H82.1828ZM97.6352 185V171H103.095C104.322 171 105.368 171.193 106.235 171.58C107.102 171.967 107.768 172.527 108.235 173.26C108.702 173.993 108.935 174.867 108.935 175.88C108.935 176.893 108.702 177.767 108.235 178.5C107.768 179.22 107.102 179.78 106.235 180.18C105.368 180.567 104.322 180.76 103.095 180.76H98.7352L99.6352 179.82V185H97.6352ZM99.6352 180.02L98.7352 179.02H103.035C104.315 179.02 105.282 178.747 105.935 178.2C106.602 177.653 106.935 176.88 106.935 175.88C106.935 174.88 106.602 174.107 105.935 173.56C105.282 173.013 104.315 172.74 103.035 172.74H98.7352L99.6352 171.74V180.02ZM111.398 185V174.4H113.238V177.28L113.058 176.56C113.351 175.827 113.845 175.267 114.538 174.88C115.231 174.493 116.085 174.3 117.098 174.3V176.16C117.018 176.147 116.938 176.14 116.858 176.14C116.791 176.14 116.725 176.14 116.658 176.14C115.631 176.14 114.818 176.447 114.218 177.06C113.618 177.673 113.318 178.56 113.318 179.72V185H111.398ZM123.907 185.12C122.84 185.12 121.894 184.887 121.067 184.42C120.24 183.953 119.587 183.313 119.107 182.5C118.627 181.673 118.387 180.74 118.387 179.7C118.387 178.647 118.627 177.713 119.107 176.9C119.587 176.087 120.24 175.453 121.067 175C121.894 174.533 122.84 174.3 123.907 174.3C124.96 174.3 125.9 174.533 126.727 175C127.567 175.453 128.22 176.087 128.687 176.9C129.167 177.7 129.407 178.633 129.407 179.7C129.407 180.753 129.167 181.687 128.687 182.5C128.22 183.313 127.567 183.953 126.727 184.42C125.9 184.887 124.96 185.12 123.907 185.12ZM123.907 183.44C124.587 183.44 125.194 183.287 125.727 182.98C126.274 182.673 126.7 182.24 127.007 181.68C127.314 181.107 127.467 180.447 127.467 179.7C127.467 178.94 127.314 178.287 127.007 177.74C126.7 177.18 126.274 176.747 125.727 176.44C125.194 176.133 124.587 175.98 123.907 175.98C123.227 175.98 122.62 176.133 122.087 176.44C121.554 176.747 121.127 177.18 120.807 177.74C120.487 178.287 120.327 178.94 120.327 179.7C120.327 180.447 120.487 181.107 120.807 181.68C121.127 182.24 121.554 182.673 122.087 182.98C122.62 183.287 123.227 183.44 123.907 183.44ZM135.702 185.12C134.636 185.12 133.809 184.833 133.222 184.26C132.636 183.687 132.342 182.867 132.342 181.8V172.08H134.262V181.72C134.262 182.293 134.402 182.733 134.682 183.04C134.976 183.347 135.389 183.5 135.922 183.5C136.522 183.5 137.022 183.333 137.422 183L138.022 184.38C137.729 184.633 137.376 184.82 136.962 184.94C136.562 185.06 136.142 185.12 135.702 185.12ZM130.542 175.98V174.4H137.302V175.98H130.542ZM146.923 185V182.76L146.823 182.34V178.52C146.823 177.707 146.583 177.08 146.103 176.64C145.637 176.187 144.93 175.96 143.983 175.96C143.357 175.96 142.743 176.067 142.143 176.28C141.543 176.48 141.037 176.753 140.623 177.1L139.823 175.66C140.37 175.22 141.023 174.887 141.783 174.66C142.557 174.42 143.363 174.3 144.203 174.3C145.657 174.3 146.777 174.653 147.563 175.36C148.35 176.067 148.743 177.147 148.743 178.6V185H146.923ZM143.443 185.12C142.657 185.12 141.963 184.987 141.363 184.72C140.777 184.453 140.323 184.087 140.003 183.62C139.683 183.14 139.523 182.6 139.523 182C139.523 181.427 139.657 180.907 139.923 180.44C140.203 179.973 140.65 179.6 141.263 179.32C141.89 179.04 142.73 178.9 143.783 178.9H147.143V180.28H143.863C142.903 180.28 142.257 180.44 141.923 180.76C141.59 181.08 141.423 181.467 141.423 181.92C141.423 182.44 141.63 182.86 142.043 183.18C142.457 183.487 143.03 183.64 143.763 183.64C144.483 183.64 145.11 183.48 145.643 183.16C146.19 182.84 146.583 182.373 146.823 181.76L147.203 183.08C146.95 183.707 146.503 184.207 145.863 184.58C145.223 184.94 144.417 185.12 143.443 185.12ZM157.957 174.3C158.823 174.3 159.583 174.467 160.237 174.8C160.903 175.133 161.423 175.64 161.797 176.32C162.17 177 162.357 177.86 162.357 178.9V185H160.437V179.12C160.437 178.093 160.183 177.32 159.677 176.8C159.183 176.28 158.483 176.02 157.577 176.02C156.897 176.02 156.303 176.153 155.797 176.42C155.29 176.687 154.897 177.08 154.617 177.6C154.35 178.12 154.217 178.767 154.217 179.54V185H152.297V174.4H154.137V177.26L153.837 176.5C154.183 175.807 154.717 175.267 155.437 174.88C156.157 174.493 156.997 174.3 157.957 174.3Z" fill="black"/>
<rect x="253" y="83" width="25" height="25" rx="3" fill="#4550D4"/>
<rect x="253" y="115" width="25" height="25" rx="3" fill="#FFD200"/>
</svg>
