<svg width="304" height="206" viewBox="0 0 304 206" fill="none" xmlns="http://www.w3.org/2000/svg">
<rect x="0.5" y="0.5" width="303" height="205" rx="4.5" fill="#272727" stroke="black"/>
<rect x="37" y="66" width="199" height="84" rx="8" fill="#848484"/>
<rect x="37" y="23" width="76" height="21" rx="8" fill="#848484"/>
<rect x="119" y="23" width="76" height="21" rx="8" fill="#848484"/>
<rect x="47" y="77" width="179" height="21" rx="8" fill="#B7B7B7"/>
<path d="M39.1 185V171H45C46.4933 171 47.8067 171.293 48.94 171.88C50.0867 172.467 50.9733 173.287 51.6 174.34C52.24 175.393 52.56 176.613 52.56 178C52.56 179.387 52.24 180.607 51.6 181.66C50.9733 182.713 50.0867 183.533 48.94 184.12C47.8067 184.707 46.4933 185 45 185H39.1ZM41.1 183.26H44.88C46.04 183.26 47.04 183.04 47.88 182.6C48.7333 182.16 49.3933 181.547 49.86 180.76C50.3267 179.96 50.56 179.04 50.56 178C50.56 176.947 50.3267 176.027 49.86 175.24C49.3933 174.453 48.7333 173.84 47.88 173.4C47.04 172.96 46.04 172.74 44.88 172.74H41.1V183.26ZM61.9234 185V182.76L61.8234 182.34V178.52C61.8234 177.707 61.5834 177.08 61.1034 176.64C60.6368 176.187 59.9301 175.96 58.9834 175.96C58.3568 175.96 57.7434 176.067 57.1434 176.28C56.5434 176.48 56.0368 176.753 55.6234 177.1L54.8234 175.66C55.3701 175.22 56.0234 174.887 56.7834 174.66C57.5568 174.42 58.3634 174.3 59.2034 174.3C60.6568 174.3 61.7768 174.653 62.5634 175.36C63.3501 176.067 63.7434 177.147 63.7434 178.6V185H61.9234ZM58.4434 185.12C57.6568 185.12 56.9634 184.987 56.3634 184.72C55.7768 184.453 55.3234 184.087 55.0034 183.62C54.6834 183.14 54.5234 182.6 54.5234 182C54.5234 181.427 54.6568 180.907 54.9234 180.44C55.2034 179.973 55.6501 179.6 56.2634 179.32C56.8901 179.04 57.7301 178.9 58.7834 178.9H62.1434V180.28H58.8634C57.9034 180.28 57.2568 180.44 56.9234 180.76C56.5901 181.08 56.4234 181.467 56.4234 181.92C56.4234 182.44 56.6301 182.86 57.0434 183.18C57.4568 183.487 58.0301 183.64 58.7634 183.64C59.4834 183.64 60.1101 183.48 60.6434 183.16C61.1901 182.84 61.5834 182.373 61.8234 181.76L62.2034 183.08C61.9501 183.707 61.5034 184.207 60.8634 184.58C60.2234 184.94 59.4168 185.12 58.4434 185.12ZM67.2966 185V174.4H69.1366V177.28L68.9566 176.56C69.2499 175.827 69.7432 175.267 70.4366 174.88C71.1299 174.493 71.9832 174.3 72.9966 174.3V176.16C72.9166 176.147 72.8366 176.14 72.7566 176.14C72.6899 176.14 72.6232 176.14 72.5566 176.14C71.5299 176.14 70.7166 176.447 70.1166 177.06C69.5166 177.673 69.2166 178.56 69.2166 179.72V185H67.2966ZM76.923 182.44L76.963 179.98L83.063 174.4H85.383L80.703 179L79.663 179.88L76.923 182.44ZM75.363 185V170.16H77.283V185H75.363ZM83.463 185L79.303 179.84L80.543 178.3L85.823 185H83.463ZM93.3383 185V171H98.7983C100.025 171 101.072 171.193 101.938 171.58C102.805 171.967 103.472 172.527 103.938 173.26C104.405 173.993 104.638 174.867 104.638 175.88C104.638 176.893 104.405 177.767 103.938 178.5C103.472 179.22 102.805 179.78 101.938 180.18C101.072 180.567 100.025 180.76 98.7983 180.76H94.4383L95.3383 179.82V185H93.3383ZM95.3383 180.02L94.4383 179.02H98.7383C100.018 179.02 100.985 178.747 101.638 178.2C102.305 177.653 102.638 176.88 102.638 175.88C102.638 174.88 102.305 174.107 101.638 173.56C100.985 173.013 100.018 172.74 98.7383 172.74H94.4383L95.3383 171.74V180.02ZM107.101 185V174.4H108.941V177.28L108.761 176.56C109.055 175.827 109.548 175.267 110.241 174.88C110.935 174.493 111.788 174.3 112.801 174.3V176.16C112.721 176.147 112.641 176.14 112.561 176.14C112.495 176.14 112.428 176.14 112.361 176.14C111.335 176.14 110.521 176.447 109.921 177.06C109.321 177.673 109.021 178.56 109.021 179.72V185H107.101ZM119.61 185.12C118.543 185.12 117.597 184.887 116.77 184.42C115.943 183.953 115.29 183.313 114.81 182.5C114.33 181.673 114.09 180.74 114.09 179.7C114.09 178.647 114.33 177.713 114.81 176.9C115.29 176.087 115.943 175.453 116.77 175C117.597 174.533 118.543 174.3 119.61 174.3C120.663 174.3 121.603 174.533 122.43 175C123.27 175.453 123.923 176.087 124.39 176.9C124.87 177.7 125.11 178.633 125.11 179.7C125.11 180.753 124.87 181.687 124.39 182.5C123.923 183.313 123.27 183.953 122.43 184.42C121.603 184.887 120.663 185.12 119.61 185.12ZM119.61 183.44C120.29 183.44 120.897 183.287 121.43 182.98C121.977 182.673 122.403 182.24 122.71 181.68C123.017 181.107 123.17 180.447 123.17 179.7C123.17 178.94 123.017 178.287 122.71 177.74C122.403 177.18 121.977 176.747 121.43 176.44C120.897 176.133 120.29 175.98 119.61 175.98C118.93 175.98 118.323 176.133 117.79 176.44C117.257 176.747 116.83 177.18 116.51 177.74C116.19 178.287 116.03 178.94 116.03 179.7C116.03 180.447 116.19 181.107 116.51 181.68C116.83 182.24 117.257 182.673 117.79 182.98C118.323 183.287 118.93 183.44 119.61 183.44ZM131.405 185.12C130.339 185.12 129.512 184.833 128.925 184.26C128.339 183.687 128.045 182.867 128.045 181.8V172.08H129.965V181.72C129.965 182.293 130.105 182.733 130.385 183.04C130.679 183.347 131.092 183.5 131.625 183.5C132.225 183.5 132.725 183.333 133.125 183L133.725 184.38C133.432 184.633 133.079 184.82 132.665 184.94C132.265 185.06 131.845 185.12 131.405 185.12ZM126.245 175.98V174.4H133.005V175.98H126.245ZM142.627 185V182.76L142.527 182.34V178.52C142.527 177.707 142.287 177.08 141.807 176.64C141.34 176.187 140.633 175.96 139.687 175.96C139.06 175.96 138.447 176.067 137.847 176.28C137.247 176.48 136.74 176.753 136.327 177.1L135.527 175.66C136.073 175.22 136.727 174.887 137.487 174.66C138.26 174.42 139.067 174.3 139.907 174.3C141.36 174.3 142.48 174.653 143.267 175.36C144.053 176.067 144.447 177.147 144.447 178.6V185H142.627ZM139.147 185.12C138.36 185.12 137.667 184.987 137.067 184.72C136.48 184.453 136.027 184.087 135.707 183.62C135.387 183.14 135.227 182.6 135.227 182C135.227 181.427 135.36 180.907 135.627 180.44C135.907 179.973 136.353 179.6 136.967 179.32C137.593 179.04 138.433 178.9 139.487 178.9H142.847V180.28H139.567C138.607 180.28 137.96 180.44 137.627 180.76C137.293 181.08 137.127 181.467 137.127 181.92C137.127 182.44 137.333 182.86 137.747 183.18C138.16 183.487 138.733 183.64 139.467 183.64C140.187 183.64 140.813 183.48 141.347 183.16C141.893 182.84 142.287 182.373 142.527 181.76L142.907 183.08C142.653 183.707 142.207 184.207 141.567 184.58C140.927 184.94 140.12 185.12 139.147 185.12ZM153.66 174.3C154.526 174.3 155.286 174.467 155.94 174.8C156.606 175.133 157.126 175.64 157.5 176.32C157.873 177 158.06 177.86 158.06 178.9V185H156.14V179.12C156.14 178.093 155.886 177.32 155.38 176.8C154.886 176.28 154.186 176.02 153.28 176.02C152.6 176.02 152.006 176.153 151.5 176.42C150.993 176.687 150.6 177.08 150.32 177.6C150.053 178.12 149.92 178.767 149.92 179.54V185H148V174.4H149.84V177.26L149.54 176.5C149.886 175.807 150.42 175.267 151.14 174.88C151.86 174.493 152.7 174.3 153.66 174.3Z" fill="white"/>
<rect x="253" y="83" width="25" height="25" rx="3" fill="#4550D4"/>
<rect x="253" y="115" width="25" height="25" rx="3" fill="#FFD200"/>
</svg>
