<svg width="304" height="206" viewBox="0 0 304 206" fill="none" xmlns="http://www.w3.org/2000/svg">
<rect x="0.5" y="0.5" width="303" height="205" rx="4.5" fill="#272727" stroke="black"/>
<rect x="37.5" y="66.5" width="215" height="83" rx="7.5" fill="#848484" stroke="#D2D2D2"/>
<rect x="37.5" y="23.5" width="75" height="20" rx="7.5" fill="#848484" stroke="#D2D2D2"/>
<rect x="119.5" y="23.5" width="75" height="20" rx="7.5" fill="#848484" stroke="#D2D2D2"/>
<rect x="48.5" y="77.5" width="193" height="20" rx="7.5" fill="#B7B7B7" stroke="#D2D2D2"/>
<path d="M39.1 185V171H45C46.4933 171 47.8067 171.293 48.94 171.88C50.0867 172.467 50.9733 173.287 51.6 174.34C52.24 175.393 52.56 176.613 52.56 178C52.56 179.387 52.24 180.607 51.6 181.66C50.9733 182.713 50.0867 183.533 48.94 184.12C47.8067 184.707 46.4933 185 45 185H39.1ZM41.1 183.26H44.88C46.04 183.26 47.04 183.04 47.88 182.6C48.7333 182.16 49.3933 181.547 49.86 180.76C50.3267 179.96 50.56 179.04 50.56 178C50.56 176.947 50.3267 176.027 49.86 175.24C49.3933 174.453 48.7333 173.84 47.88 173.4C47.04 172.96 46.04 172.74 44.88 172.74H41.1V183.26ZM61.9234 185V182.76L61.8234 182.34V178.52C61.8234 177.707 61.5834 177.08 61.1034 176.64C60.6368 176.187 59.9301 175.96 58.9834 175.96C58.3568 175.96 57.7434 176.067 57.1434 176.28C56.5434 176.48 56.0368 176.753 55.6234 177.1L54.8234 175.66C55.3701 175.22 56.0234 174.887 56.7834 174.66C57.5568 174.42 58.3634 174.3 59.2034 174.3C60.6568 174.3 61.7768 174.653 62.5634 175.36C63.3501 176.067 63.7434 177.147 63.7434 178.6V185H61.9234ZM58.4434 185.12C57.6568 185.12 56.9634 184.987 56.3634 184.72C55.7768 184.453 55.3234 184.087 55.0034 183.62C54.6834 183.14 54.5234 182.6 54.5234 182C54.5234 181.427 54.6568 180.907 54.9234 180.44C55.2034 179.973 55.6501 179.6 56.2634 179.32C56.8901 179.04 57.7301 178.9 58.7834 178.9H62.1434V180.28H58.8634C57.9034 180.28 57.2568 180.44 56.9234 180.76C56.5901 181.08 56.4234 181.467 56.4234 181.92C56.4234 182.44 56.6301 182.86 57.0434 183.18C57.4568 183.487 58.0301 183.64 58.7634 183.64C59.4834 183.64 60.1101 183.48 60.6434 183.16C61.1901 182.84 61.5834 182.373 61.8234 181.76L62.2034 183.08C61.9501 183.707 61.5034 184.207 60.8634 184.58C60.2234 184.94 59.4168 185.12 58.4434 185.12ZM67.2966 185V174.4H69.1366V177.28L68.9566 176.56C69.2499 175.827 69.7432 175.267 70.4366 174.88C71.1299 174.493 71.9832 174.3 72.9966 174.3V176.16C72.9166 176.147 72.8366 176.14 72.7566 176.14C72.6899 176.14 72.6232 176.14 72.5566 176.14C71.5299 176.14 70.7166 176.447 70.1166 177.06C69.5166 177.673 69.2166 178.56 69.2166 179.72V185H67.2966ZM76.923 182.44L76.963 179.98L83.063 174.4H85.383L80.703 179L79.663 179.88L76.923 182.44ZM75.363 185V170.16H77.283V185H75.363ZM83.463 185L79.303 179.84L80.543 178.3L85.823 185H83.463ZM103.378 171H105.378V185H103.378V171ZM95.3383 185H93.3383V171H95.3383V185ZM103.558 178.76H95.1383V177.02H103.558V178.76ZM109.289 185V174.4H111.209V185H109.289ZM110.249 172.36C109.875 172.36 109.562 172.24 109.309 172C109.069 171.76 108.949 171.467 108.949 171.12C108.949 170.76 109.069 170.46 109.309 170.22C109.562 169.98 109.875 169.86 110.249 169.86C110.622 169.86 110.929 169.98 111.169 170.22C111.422 170.447 111.549 170.733 111.549 171.08C111.549 171.44 111.429 171.747 111.189 172C110.949 172.24 110.635 172.36 110.249 172.36ZM119.515 189C118.541 189 117.595 188.86 116.675 188.58C115.768 188.313 115.028 187.927 114.455 187.42L115.375 185.94C115.868 186.367 116.475 186.7 117.195 186.94C117.915 187.193 118.668 187.32 119.455 187.32C120.708 187.32 121.628 187.027 122.215 186.44C122.801 185.853 123.095 184.96 123.095 183.76V181.52L123.295 179.42L123.195 177.3V174.4H125.015V183.56C125.015 185.427 124.548 186.8 123.615 187.68C122.681 188.56 121.315 189 119.515 189ZM119.275 184.56C118.248 184.56 117.328 184.347 116.515 183.92C115.715 183.48 115.075 182.873 114.595 182.1C114.128 181.327 113.895 180.433 113.895 179.42C113.895 178.393 114.128 177.5 114.595 176.74C115.075 175.967 115.715 175.367 116.515 174.94C117.328 174.513 118.248 174.3 119.275 174.3C120.181 174.3 121.008 174.487 121.755 174.86C122.501 175.22 123.095 175.78 123.535 176.54C123.988 177.3 124.215 178.26 124.215 179.42C124.215 180.567 123.988 181.52 123.535 182.28C123.095 183.04 122.501 183.613 121.755 184C121.008 184.373 120.181 184.56 119.275 184.56ZM119.495 182.88C120.201 182.88 120.828 182.733 121.375 182.44C121.921 182.147 122.348 181.74 122.655 181.22C122.975 180.7 123.135 180.1 123.135 179.42C123.135 178.74 122.975 178.14 122.655 177.62C122.348 177.1 121.921 176.7 121.375 176.42C120.828 176.127 120.201 175.98 119.495 175.98C118.788 175.98 118.155 176.127 117.595 176.42C117.048 176.7 116.615 177.1 116.295 177.62C115.988 178.14 115.835 178.74 115.835 179.42C115.835 180.1 115.988 180.7 116.295 181.22C116.615 181.74 117.048 182.147 117.595 182.44C118.155 182.733 118.788 182.88 119.495 182.88ZM134.343 174.3C135.21 174.3 135.97 174.467 136.623 174.8C137.29 175.133 137.81 175.64 138.183 176.32C138.557 177 138.743 177.86 138.743 178.9V185H136.823V179.12C136.823 178.093 136.57 177.32 136.063 176.8C135.57 176.28 134.87 176.02 133.963 176.02C133.283 176.02 132.69 176.153 132.183 176.42C131.677 176.687 131.283 177.08 131.003 177.6C130.737 178.12 130.603 178.767 130.603 179.54V185H128.683V170.16H130.603V177.26L130.223 176.5C130.57 175.807 131.103 175.267 131.823 174.88C132.543 174.493 133.383 174.3 134.343 174.3ZM154.208 185.16C153.141 185.16 152.154 184.987 151.248 184.64C150.354 184.28 149.574 183.78 148.908 183.14C148.254 182.487 147.741 181.727 147.368 180.86C146.994 179.993 146.808 179.04 146.808 178C146.808 176.96 146.994 176.007 147.368 175.14C147.741 174.273 148.261 173.52 148.928 172.88C149.594 172.227 150.374 171.727 151.268 171.38C152.174 171.02 153.161 170.84 154.228 170.84C155.308 170.84 156.301 171.027 157.208 171.4C158.128 171.76 158.908 172.3 159.548 173.02L158.248 174.28C157.714 173.72 157.114 173.307 156.448 173.04C155.781 172.76 155.068 172.62 154.308 172.62C153.521 172.62 152.788 172.753 152.108 173.02C151.441 173.287 150.861 173.66 150.368 174.14C149.874 174.62 149.488 175.193 149.208 175.86C148.941 176.513 148.808 177.227 148.808 178C148.808 178.773 148.941 179.493 149.208 180.16C149.488 180.813 149.874 181.38 150.368 181.86C150.861 182.34 151.441 182.713 152.108 182.98C152.788 183.247 153.521 183.38 154.308 183.38C155.068 183.38 155.781 183.247 156.448 182.98C157.114 182.7 157.714 182.273 158.248 181.7L159.548 182.96C158.908 183.68 158.128 184.227 157.208 184.6C156.301 184.973 155.301 185.16 154.208 185.16ZM166.212 185.12C165.145 185.12 164.198 184.887 163.372 184.42C162.545 183.953 161.892 183.313 161.412 182.5C160.932 181.673 160.692 180.74 160.692 179.7C160.692 178.647 160.932 177.713 161.412 176.9C161.892 176.087 162.545 175.453 163.372 175C164.198 174.533 165.145 174.3 166.212 174.3C167.265 174.3 168.205 174.533 169.032 175C169.872 175.453 170.525 176.087 170.992 176.9C171.472 177.7 171.712 178.633 171.712 179.7C171.712 180.753 171.472 181.687 170.992 182.5C170.525 183.313 169.872 183.953 169.032 184.42C168.205 184.887 167.265 185.12 166.212 185.12ZM166.212 183.44C166.892 183.44 167.498 183.287 168.032 182.98C168.578 182.673 169.005 182.24 169.312 181.68C169.618 181.107 169.772 180.447 169.772 179.7C169.772 178.94 169.618 178.287 169.312 177.74C169.005 177.18 168.578 176.747 168.032 176.44C167.498 176.133 166.892 175.98 166.212 175.98C165.532 175.98 164.925 176.133 164.392 176.44C163.858 176.747 163.432 177.18 163.112 177.74C162.792 178.287 162.632 178.94 162.632 179.7C162.632 180.447 162.792 181.107 163.112 181.68C163.432 182.24 163.858 182.673 164.392 182.98C164.925 183.287 165.532 183.44 166.212 183.44ZM180.027 174.3C180.894 174.3 181.654 174.467 182.307 174.8C182.974 175.133 183.494 175.64 183.867 176.32C184.24 177 184.427 177.86 184.427 178.9V185H182.507V179.12C182.507 178.093 182.254 177.32 181.747 176.8C181.254 176.28 180.554 176.02 179.647 176.02C178.967 176.02 178.374 176.153 177.867 176.42C177.36 176.687 176.967 177.08 176.687 177.6C176.42 178.12 176.287 178.767 176.287 179.54V185H174.367V174.4H176.207V177.26L175.907 176.5C176.254 175.807 176.787 175.267 177.507 174.88C178.227 174.493 179.067 174.3 180.027 174.3ZM191.62 185.12C190.553 185.12 189.727 184.833 189.14 184.26C188.553 183.687 188.26 182.867 188.26 181.8V172.08H190.18V181.72C190.18 182.293 190.32 182.733 190.6 183.04C190.893 183.347 191.307 183.5 191.84 183.5C192.44 183.5 192.94 183.333 193.34 183L193.94 184.38C193.647 184.633 193.293 184.82 192.88 184.94C192.48 185.06 192.06 185.12 191.62 185.12ZM186.46 175.98V174.4H193.22V175.98H186.46ZM196.261 185V174.4H198.101V177.28L197.921 176.56C198.215 175.827 198.708 175.267 199.401 174.88C200.095 174.493 200.948 174.3 201.961 174.3V176.16C201.881 176.147 201.801 176.14 201.721 176.14C201.655 176.14 201.588 176.14 201.521 176.14C200.495 176.14 199.681 176.447 199.081 177.06C198.481 177.673 198.181 178.56 198.181 179.72V185H196.261ZM210.127 185V182.76L210.027 182.34V178.52C210.027 177.707 209.787 177.08 209.307 176.64C208.84 176.187 208.133 175.96 207.187 175.96C206.56 175.96 205.947 176.067 205.347 176.28C204.747 176.48 204.24 176.753 203.827 177.1L203.027 175.66C203.573 175.22 204.227 174.887 204.987 174.66C205.76 174.42 206.567 174.3 207.407 174.3C208.86 174.3 209.98 174.653 210.767 175.36C211.553 176.067 211.947 177.147 211.947 178.6V185H210.127ZM206.647 185.12C205.86 185.12 205.167 184.987 204.567 184.72C203.98 184.453 203.527 184.087 203.207 183.62C202.887 183.14 202.727 182.6 202.727 182C202.727 181.427 202.86 180.907 203.127 180.44C203.407 179.973 203.853 179.6 204.467 179.32C205.093 179.04 205.933 178.9 206.987 178.9H210.347V180.28H207.067C206.107 180.28 205.46 180.44 205.127 180.76C204.793 181.08 204.627 181.467 204.627 181.92C204.627 182.44 204.833 182.86 205.247 183.18C205.66 183.487 206.233 183.64 206.967 183.64C207.687 183.64 208.313 183.48 208.847 183.16C209.393 182.84 209.787 182.373 210.027 181.76L210.407 183.08C210.153 183.707 209.707 184.207 209.067 184.58C208.427 184.94 207.62 185.12 206.647 185.12ZM218.54 185.12C217.66 185.12 216.82 185 216.02 184.76C215.233 184.52 214.613 184.227 214.16 183.88L214.96 182.36C215.413 182.667 215.973 182.927 216.64 183.14C217.306 183.353 217.986 183.46 218.68 183.46C219.573 183.46 220.213 183.333 220.6 183.08C221 182.827 221.2 182.473 221.2 182.02C221.2 181.687 221.08 181.427 220.84 181.24C220.6 181.053 220.28 180.913 219.88 180.82C219.493 180.727 219.06 180.647 218.58 180.58C218.1 180.5 217.62 180.407 217.14 180.3C216.66 180.18 216.22 180.02 215.82 179.82C215.42 179.607 215.1 179.32 214.86 178.96C214.62 178.587 214.5 178.093 214.5 177.48C214.5 176.84 214.68 176.28 215.04 175.8C215.4 175.32 215.906 174.953 216.56 174.7C217.226 174.433 218.013 174.3 218.92 174.3C219.613 174.3 220.313 174.387 221.02 174.56C221.74 174.72 222.326 174.953 222.78 175.26L221.96 176.78C221.48 176.46 220.98 176.24 220.46 176.12C219.94 176 219.42 175.94 218.9 175.94C218.06 175.94 217.433 176.08 217.02 176.36C216.606 176.627 216.4 176.973 216.4 177.4C216.4 177.76 216.52 178.04 216.76 178.24C217.013 178.427 217.333 178.573 217.72 178.68C218.12 178.787 218.56 178.88 219.04 178.96C219.52 179.027 220 179.12 220.48 179.24C220.96 179.347 221.393 179.5 221.78 179.7C222.18 179.9 222.5 180.18 222.74 180.54C222.993 180.9 223.12 181.38 223.12 181.98C223.12 182.62 222.933 183.173 222.56 183.64C222.186 184.107 221.66 184.473 220.98 184.74C220.3 184.993 219.486 185.12 218.54 185.12ZM229.159 185.12C228.093 185.12 227.266 184.833 226.679 184.26C226.093 183.687 225.799 182.867 225.799 181.8V172.08H227.719V181.72C227.719 182.293 227.859 182.733 228.139 183.04C228.433 183.347 228.846 183.5 229.379 183.5C229.979 183.5 230.479 183.333 230.879 183L231.479 184.38C231.186 184.633 230.833 184.82 230.419 184.94C230.019 185.06 229.599 185.12 229.159 185.12ZM223.999 175.98V174.4H230.759V175.98H223.999Z" fill="white"/>
</svg>
