<svg width="304" height="206" viewBox="0 0 304 206" fill="none" xmlns="http://www.w3.org/2000/svg">
<rect width="304" height="206" rx="5" fill="white"/>
<rect x="0.5" y="0.5" width="303" height="205" rx="4.5" stroke="black" stroke-opacity="0.5"/>
<rect x="37.5" y="66.5" width="215" height="83" rx="7.5" fill="#E9E9E9" stroke="#4E4E4E"/>
<rect x="37.5" y="23.5" width="75" height="20" rx="7.5" fill="#D9D9D9" stroke="#4E4E4E"/>
<rect x="119.5" y="23.5" width="75" height="20" rx="7.5" fill="#D9D9D9" stroke="#4E4E4E"/>
<rect x="48.5" y="77.5" width="193" height="20" rx="7.5" fill="#B7B7B7" stroke="#4E4E4E"/>
<path d="M39.1 185V171H41.1V183.26H48.68V185H39.1ZM50.695 185V174.4H52.615V185H50.695ZM51.655 172.36C51.2817 172.36 50.9683 172.24 50.715 172C50.475 171.76 50.355 171.467 50.355 171.12C50.355 170.76 50.475 170.46 50.715 170.22C50.9683 169.98 51.2817 169.86 51.655 169.86C52.0283 169.86 52.335 169.98 52.575 170.22C52.8283 170.447 52.955 170.733 52.955 171.08C52.955 171.44 52.835 171.747 52.595 172C52.355 172.24 52.0417 172.36 51.655 172.36ZM60.9209 189C59.9476 189 59.0009 188.86 58.0809 188.58C57.1743 188.313 56.4343 187.927 55.8609 187.42L56.7809 185.94C57.2743 186.367 57.8809 186.7 58.6009 186.94C59.3209 187.193 60.0743 187.32 60.8609 187.32C62.1143 187.32 63.0343 187.027 63.6209 186.44C64.2076 185.853 64.5009 184.96 64.5009 183.76V181.52L64.7009 179.42L64.6009 177.3V174.4H66.4209V183.56C66.4209 185.427 65.9543 186.8 65.0209 187.68C64.0876 188.56 62.7209 189 60.9209 189ZM60.6809 184.56C59.6543 184.56 58.7343 184.347 57.9209 183.92C57.1209 183.48 56.4809 182.873 56.0009 182.1C55.5343 181.327 55.3009 180.433 55.3009 179.42C55.3009 178.393 55.5343 177.5 56.0009 176.74C56.4809 175.967 57.1209 175.367 57.9209 174.94C58.7343 174.513 59.6543 174.3 60.6809 174.3C61.5876 174.3 62.4143 174.487 63.1609 174.86C63.9076 175.22 64.5009 175.78 64.9409 176.54C65.3943 177.3 65.6209 178.26 65.6209 179.42C65.6209 180.567 65.3943 181.52 64.9409 182.28C64.5009 183.04 63.9076 183.613 63.1609 184C62.4143 184.373 61.5876 184.56 60.6809 184.56ZM60.9009 182.88C61.6076 182.88 62.2343 182.733 62.7809 182.44C63.3276 182.147 63.7543 181.74 64.0609 181.22C64.3809 180.7 64.5409 180.1 64.5409 179.42C64.5409 178.74 64.3809 178.14 64.0609 177.62C63.7543 177.1 63.3276 176.7 62.7809 176.42C62.2343 176.127 61.6076 175.98 60.9009 175.98C60.1943 175.98 59.5609 176.127 59.0009 176.42C58.4543 176.7 58.0209 177.1 57.7009 177.62C57.3943 178.14 57.2409 178.74 57.2409 179.42C57.2409 180.1 57.3943 180.7 57.7009 181.22C58.0209 181.74 58.4543 182.147 59.0009 182.44C59.5609 182.733 60.1943 182.88 60.9009 182.88ZM75.7495 174.3C76.6162 174.3 77.3762 174.467 78.0295 174.8C78.6962 175.133 79.2162 175.64 79.5895 176.32C79.9629 177 80.1495 177.86 80.1495 178.9V185H78.2295V179.12C78.2295 178.093 77.9762 177.32 77.4695 176.8C76.9762 176.28 76.2762 176.02 75.3695 176.02C74.6895 176.02 74.0962 176.153 73.5895 176.42C73.0829 176.687 72.6895 177.08 72.4095 177.6C72.1429 178.12 72.0095 178.767 72.0095 179.54V185H70.0895V170.16H72.0095V177.26L71.6295 176.5C71.9762 175.807 72.5095 175.267 73.2295 174.88C73.9495 174.493 74.7895 174.3 75.7495 174.3ZM87.3428 185.12C86.2761 185.12 85.4495 184.833 84.8628 184.26C84.2761 183.687 83.9828 182.867 83.9828 181.8V172.08H85.9028V181.72C85.9028 182.293 86.0428 182.733 86.3228 183.04C86.6161 183.347 87.0295 183.5 87.5628 183.5C88.1628 183.5 88.6628 183.333 89.0628 183L89.6628 184.38C89.3695 184.633 89.0161 184.82 88.6028 184.94C88.2028 185.06 87.7828 185.12 87.3428 185.12ZM82.1828 175.98V174.4H88.9428V175.98H82.1828ZM107.675 171H109.675V185H107.675V171ZM99.6352 185H97.6352V171H99.6352V185ZM107.855 178.76H99.4352V177.02H107.855V178.76ZM113.586 185V174.4H115.506V185H113.586ZM114.546 172.36C114.172 172.36 113.859 172.24 113.606 172C113.366 171.76 113.246 171.467 113.246 171.12C113.246 170.76 113.366 170.46 113.606 170.22C113.859 169.98 114.172 169.86 114.546 169.86C114.919 169.86 115.226 169.98 115.466 170.22C115.719 170.447 115.846 170.733 115.846 171.08C115.846 171.44 115.726 171.747 115.486 172C115.246 172.24 114.932 172.36 114.546 172.36ZM123.812 189C122.838 189 121.892 188.86 120.972 188.58C120.065 188.313 119.325 187.927 118.752 187.42L119.672 185.94C120.165 186.367 120.772 186.7 121.492 186.94C122.212 187.193 122.965 187.32 123.752 187.32C125.005 187.32 125.925 187.027 126.512 186.44C127.098 185.853 127.392 184.96 127.392 183.76V181.52L127.592 179.42L127.492 177.3V174.4H129.312V183.56C129.312 185.427 128.845 186.8 127.912 187.68C126.978 188.56 125.612 189 123.812 189ZM123.572 184.56C122.545 184.56 121.625 184.347 120.812 183.92C120.012 183.48 119.372 182.873 118.892 182.1C118.425 181.327 118.192 180.433 118.192 179.42C118.192 178.393 118.425 177.5 118.892 176.74C119.372 175.967 120.012 175.367 120.812 174.94C121.625 174.513 122.545 174.3 123.572 174.3C124.478 174.3 125.305 174.487 126.052 174.86C126.798 175.22 127.392 175.78 127.832 176.54C128.285 177.3 128.512 178.26 128.512 179.42C128.512 180.567 128.285 181.52 127.832 182.28C127.392 183.04 126.798 183.613 126.052 184C125.305 184.373 124.478 184.56 123.572 184.56ZM123.792 182.88C124.498 182.88 125.125 182.733 125.672 182.44C126.218 182.147 126.645 181.74 126.952 181.22C127.272 180.7 127.432 180.1 127.432 179.42C127.432 178.74 127.272 178.14 126.952 177.62C126.645 177.1 126.218 176.7 125.672 176.42C125.125 176.127 124.498 175.98 123.792 175.98C123.085 175.98 122.452 176.127 121.892 176.42C121.345 176.7 120.912 177.1 120.592 177.62C120.285 178.14 120.132 178.74 120.132 179.42C120.132 180.1 120.285 180.7 120.592 181.22C120.912 181.74 121.345 182.147 121.892 182.44C122.452 182.733 123.085 182.88 123.792 182.88ZM138.64 174.3C139.507 174.3 140.267 174.467 140.92 174.8C141.587 175.133 142.107 175.64 142.48 176.32C142.853 177 143.04 177.86 143.04 178.9V185H141.12V179.12C141.12 178.093 140.867 177.32 140.36 176.8C139.867 176.28 139.167 176.02 138.26 176.02C137.58 176.02 136.987 176.153 136.48 176.42C135.973 176.687 135.58 177.08 135.3 177.6C135.033 178.12 134.9 178.767 134.9 179.54V185H132.98V170.16H134.9V177.26L134.52 176.5C134.867 175.807 135.4 175.267 136.12 174.88C136.84 174.493 137.68 174.3 138.64 174.3ZM158.505 185.16C157.438 185.16 156.451 184.987 155.545 184.64C154.651 184.28 153.871 183.78 153.205 183.14C152.551 182.487 152.038 181.727 151.665 180.86C151.291 179.993 151.105 179.04 151.105 178C151.105 176.96 151.291 176.007 151.665 175.14C152.038 174.273 152.558 173.52 153.225 172.88C153.891 172.227 154.671 171.727 155.565 171.38C156.471 171.02 157.458 170.84 158.525 170.84C159.605 170.84 160.598 171.027 161.505 171.4C162.425 171.76 163.205 172.3 163.845 173.02L162.545 174.28C162.011 173.72 161.411 173.307 160.745 173.04C160.078 172.76 159.365 172.62 158.605 172.62C157.818 172.62 157.085 172.753 156.405 173.02C155.738 173.287 155.158 173.66 154.665 174.14C154.171 174.62 153.785 175.193 153.505 175.86C153.238 176.513 153.105 177.227 153.105 178C153.105 178.773 153.238 179.493 153.505 180.16C153.785 180.813 154.171 181.38 154.665 181.86C155.158 182.34 155.738 182.713 156.405 182.98C157.085 183.247 157.818 183.38 158.605 183.38C159.365 183.38 160.078 183.247 160.745 182.98C161.411 182.7 162.011 182.273 162.545 181.7L163.845 182.96C163.205 183.68 162.425 184.227 161.505 184.6C160.598 184.973 159.598 185.16 158.505 185.16ZM170.508 185.12C169.442 185.12 168.495 184.887 167.668 184.42C166.842 183.953 166.188 183.313 165.708 182.5C165.228 181.673 164.988 180.74 164.988 179.7C164.988 178.647 165.228 177.713 165.708 176.9C166.188 176.087 166.842 175.453 167.668 175C168.495 174.533 169.442 174.3 170.508 174.3C171.562 174.3 172.502 174.533 173.328 175C174.168 175.453 174.822 176.087 175.288 176.9C175.768 177.7 176.008 178.633 176.008 179.7C176.008 180.753 175.768 181.687 175.288 182.5C174.822 183.313 174.168 183.953 173.328 184.42C172.502 184.887 171.562 185.12 170.508 185.12ZM170.508 183.44C171.188 183.44 171.795 183.287 172.328 182.98C172.875 182.673 173.302 182.24 173.608 181.68C173.915 181.107 174.068 180.447 174.068 179.7C174.068 178.94 173.915 178.287 173.608 177.74C173.302 177.18 172.875 176.747 172.328 176.44C171.795 176.133 171.188 175.98 170.508 175.98C169.828 175.98 169.222 176.133 168.688 176.44C168.155 176.747 167.728 177.18 167.408 177.74C167.088 178.287 166.928 178.94 166.928 179.7C166.928 180.447 167.088 181.107 167.408 181.68C167.728 182.24 168.155 182.673 168.688 182.98C169.222 183.287 169.828 183.44 170.508 183.44ZM184.324 174.3C185.19 174.3 185.95 174.467 186.604 174.8C187.27 175.133 187.79 175.64 188.164 176.32C188.537 177 188.724 177.86 188.724 178.9V185H186.804V179.12C186.804 178.093 186.55 177.32 186.044 176.8C185.55 176.28 184.85 176.02 183.944 176.02C183.264 176.02 182.67 176.153 182.164 176.42C181.657 176.687 181.264 177.08 180.984 177.6C180.717 178.12 180.584 178.767 180.584 179.54V185H178.664V174.4H180.504V177.26L180.204 176.5C180.55 175.807 181.084 175.267 181.804 174.88C182.524 174.493 183.364 174.3 184.324 174.3ZM195.917 185.12C194.85 185.12 194.024 184.833 193.437 184.26C192.85 183.687 192.557 182.867 192.557 181.8V172.08H194.477V181.72C194.477 182.293 194.617 182.733 194.897 183.04C195.19 183.347 195.604 183.5 196.137 183.5C196.737 183.5 197.237 183.333 197.637 183L198.237 184.38C197.944 184.633 197.59 184.82 197.177 184.94C196.777 185.06 196.357 185.12 195.917 185.12ZM190.757 175.98V174.4H197.517V175.98H190.757ZM200.558 185V174.4H202.398V177.28L202.218 176.56C202.512 175.827 203.005 175.267 203.698 174.88C204.392 174.493 205.245 174.3 206.258 174.3V176.16C206.178 176.147 206.098 176.14 206.018 176.14C205.952 176.14 205.885 176.14 205.818 176.14C204.792 176.14 203.978 176.447 203.378 177.06C202.778 177.673 202.478 178.56 202.478 179.72V185H200.558ZM214.423 185V182.76L214.323 182.34V178.52C214.323 177.707 214.083 177.08 213.603 176.64C213.137 176.187 212.43 175.96 211.483 175.96C210.857 175.96 210.243 176.067 209.643 176.28C209.043 176.48 208.537 176.753 208.123 177.1L207.323 175.66C207.87 175.22 208.523 174.887 209.283 174.66C210.057 174.42 210.863 174.3 211.703 174.3C213.157 174.3 214.277 174.653 215.063 175.36C215.85 176.067 216.243 177.147 216.243 178.6V185H214.423ZM210.943 185.12C210.157 185.12 209.463 184.987 208.863 184.72C208.277 184.453 207.823 184.087 207.503 183.62C207.183 183.14 207.023 182.6 207.023 182C207.023 181.427 207.157 180.907 207.423 180.44C207.703 179.973 208.15 179.6 208.763 179.32C209.39 179.04 210.23 178.9 211.283 178.9H214.643V180.28H211.363C210.403 180.28 209.757 180.44 209.423 180.76C209.09 181.08 208.923 181.467 208.923 181.92C208.923 182.44 209.13 182.86 209.543 183.18C209.957 183.487 210.53 183.64 211.263 183.64C211.983 183.64 212.61 183.48 213.143 183.16C213.69 182.84 214.083 182.373 214.323 181.76L214.703 183.08C214.45 183.707 214.003 184.207 213.363 184.58C212.723 184.94 211.917 185.12 210.943 185.12ZM222.837 185.12C221.957 185.12 221.117 185 220.317 184.76C219.53 184.52 218.91 184.227 218.457 183.88L219.257 182.36C219.71 182.667 220.27 182.927 220.937 183.14C221.603 183.353 222.283 183.46 222.977 183.46C223.87 183.46 224.51 183.333 224.897 183.08C225.297 182.827 225.497 182.473 225.497 182.02C225.497 181.687 225.377 181.427 225.137 181.24C224.897 181.053 224.577 180.913 224.177 180.82C223.79 180.727 223.357 180.647 222.877 180.58C222.397 180.5 221.917 180.407 221.437 180.3C220.957 180.18 220.517 180.02 220.117 179.82C219.717 179.607 219.397 179.32 219.157 178.96C218.917 178.587 218.797 178.093 218.797 177.48C218.797 176.84 218.977 176.28 219.337 175.8C219.697 175.32 220.203 174.953 220.857 174.7C221.523 174.433 222.31 174.3 223.217 174.3C223.91 174.3 224.61 174.387 225.317 174.56C226.037 174.72 226.623 174.953 227.077 175.26L226.257 176.78C225.777 176.46 225.277 176.24 224.757 176.12C224.237 176 223.717 175.94 223.197 175.94C222.357 175.94 221.73 176.08 221.317 176.36C220.903 176.627 220.697 176.973 220.697 177.4C220.697 177.76 220.817 178.04 221.057 178.24C221.31 178.427 221.63 178.573 222.017 178.68C222.417 178.787 222.857 178.88 223.337 178.96C223.817 179.027 224.297 179.12 224.777 179.24C225.257 179.347 225.69 179.5 226.077 179.7C226.477 179.9 226.797 180.18 227.037 180.54C227.29 180.9 227.417 181.38 227.417 181.98C227.417 182.62 227.23 183.173 226.857 183.64C226.483 184.107 225.957 184.473 225.277 184.74C224.597 184.993 223.783 185.12 222.837 185.12ZM233.456 185.12C232.389 185.12 231.563 184.833 230.976 184.26C230.389 183.687 230.096 182.867 230.096 181.8V172.08H232.016V181.72C232.016 182.293 232.156 182.733 232.436 183.04C232.729 183.347 233.143 183.5 233.676 183.5C234.276 183.5 234.776 183.333 235.176 183L235.776 184.38C235.483 184.633 235.129 184.82 234.716 184.94C234.316 185.06 233.896 185.12 233.456 185.12ZM228.296 175.98V174.4H235.056V175.98H228.296Z" fill="black"/>
</svg>
