<svg width="304" height="206" viewBox="0 0 304 206" fill="none" xmlns="http://www.w3.org/2000/svg">
<rect width="304" height="206" rx="5" fill="white"/>
<rect x="0.5" y="0.5" width="303" height="205" rx="4.5" stroke="black" stroke-opacity="0.5"/>
<rect x="37" y="66" width="199" height="84" rx="8" fill="#E9E9E9"/>
<rect x="37" y="23" width="76" height="21" rx="8" fill="#D9D9D9"/>
<rect x="119" y="23" width="76" height="21" rx="8" fill="#D9D9D9"/>
<rect x="47" y="77" width="179" height="21" rx="8" fill="#B7B7B7"/>
<path d="M39.1 185V171H41.1V183.26H48.68V185H39.1ZM50.695 185V174.4H52.615V185H50.695ZM51.655 172.36C51.2817 172.36 50.9683 172.24 50.715 172C50.475 171.76 50.355 171.467 50.355 171.12C50.355 170.76 50.475 170.46 50.715 170.22C50.9683 169.98 51.2817 169.86 51.655 169.86C52.0283 169.86 52.335 169.98 52.575 170.22C52.8283 170.447 52.955 170.733 52.955 171.08C52.955 171.44 52.835 171.747 52.595 172C52.355 172.24 52.0417 172.36 51.655 172.36ZM60.9209 189C59.9476 189 59.0009 188.86 58.0809 188.58C57.1743 188.313 56.4343 187.927 55.8609 187.42L56.7809 185.94C57.2743 186.367 57.8809 186.7 58.6009 186.94C59.3209 187.193 60.0743 187.32 60.8609 187.32C62.1143 187.32 63.0343 187.027 63.6209 186.44C64.2076 185.853 64.5009 184.96 64.5009 183.76V181.52L64.7009 179.42L64.6009 177.3V174.4H66.4209V183.56C66.4209 185.427 65.9543 186.8 65.0209 187.68C64.0876 188.56 62.7209 189 60.9209 189ZM60.6809 184.56C59.6543 184.56 58.7343 184.347 57.9209 183.92C57.1209 183.48 56.4809 182.873 56.0009 182.1C55.5343 181.327 55.3009 180.433 55.3009 179.42C55.3009 178.393 55.5343 177.5 56.0009 176.74C56.4809 175.967 57.1209 175.367 57.9209 174.94C58.7343 174.513 59.6543 174.3 60.6809 174.3C61.5876 174.3 62.4143 174.487 63.1609 174.86C63.9076 175.22 64.5009 175.78 64.9409 176.54C65.3943 177.3 65.6209 178.26 65.6209 179.42C65.6209 180.567 65.3943 181.52 64.9409 182.28C64.5009 183.04 63.9076 183.613 63.1609 184C62.4143 184.373 61.5876 184.56 60.6809 184.56ZM60.9009 182.88C61.6076 182.88 62.2343 182.733 62.7809 182.44C63.3276 182.147 63.7543 181.74 64.0609 181.22C64.3809 180.7 64.5409 180.1 64.5409 179.42C64.5409 178.74 64.3809 178.14 64.0609 177.62C63.7543 177.1 63.3276 176.7 62.7809 176.42C62.2343 176.127 61.6076 175.98 60.9009 175.98C60.1943 175.98 59.5609 176.127 59.0009 176.42C58.4543 176.7 58.0209 177.1 57.7009 177.62C57.3943 178.14 57.2409 178.74 57.2409 179.42C57.2409 180.1 57.3943 180.7 57.7009 181.22C58.0209 181.74 58.4543 182.147 59.0009 182.44C59.5609 182.733 60.1943 182.88 60.9009 182.88ZM75.7495 174.3C76.6162 174.3 77.3762 174.467 78.0295 174.8C78.6962 175.133 79.2162 175.64 79.5895 176.32C79.9629 177 80.1495 177.86 80.1495 178.9V185H78.2295V179.12C78.2295 178.093 77.9762 177.32 77.4695 176.8C76.9762 176.28 76.2762 176.02 75.3695 176.02C74.6895 176.02 74.0962 176.153 73.5895 176.42C73.0829 176.687 72.6895 177.08 72.4095 177.6C72.1429 178.12 72.0095 178.767 72.0095 179.54V185H70.0895V170.16H72.0095V177.26L71.6295 176.5C71.9762 175.807 72.5095 175.267 73.2295 174.88C73.9495 174.493 74.7895 174.3 75.7495 174.3ZM87.3428 185.12C86.2761 185.12 85.4495 184.833 84.8628 184.26C84.2761 183.687 83.9828 182.867 83.9828 181.8V172.08H85.9028V181.72C85.9028 182.293 86.0428 182.733 86.3228 183.04C86.6161 183.347 87.0295 183.5 87.5628 183.5C88.1628 183.5 88.6628 183.333 89.0628 183L89.6628 184.38C89.3695 184.633 89.0161 184.82 88.6028 184.94C88.2028 185.06 87.7828 185.12 87.3428 185.12ZM82.1828 175.98V174.4H88.9428V175.98H82.1828ZM97.6352 185V171H103.535C105.028 171 106.342 171.293 107.475 171.88C108.622 172.467 109.508 173.287 110.135 174.34C110.775 175.393 111.095 176.613 111.095 178C111.095 179.387 110.775 180.607 110.135 181.66C109.508 182.713 108.622 183.533 107.475 184.12C106.342 184.707 105.028 185 103.535 185H97.6352ZM99.6352 183.26H103.415C104.575 183.26 105.575 183.04 106.415 182.6C107.268 182.16 107.928 181.547 108.395 180.76C108.862 179.96 109.095 179.04 109.095 178C109.095 176.947 108.862 176.027 108.395 175.24C107.928 174.453 107.268 173.84 106.415 173.4C105.575 172.96 104.575 172.74 103.415 172.74H99.6352V183.26ZM118.599 185.12C117.465 185.12 116.465 184.887 115.599 184.42C114.745 183.953 114.079 183.313 113.599 182.5C113.132 181.687 112.899 180.753 112.899 179.7C112.899 178.647 113.125 177.713 113.579 176.9C114.045 176.087 114.679 175.453 115.479 175C116.292 174.533 117.205 174.3 118.219 174.3C119.245 174.3 120.152 174.527 120.939 174.98C121.725 175.433 122.339 176.073 122.779 176.9C123.232 177.713 123.459 178.667 123.459 179.76C123.459 179.84 123.452 179.933 123.439 180.04C123.439 180.147 123.432 180.247 123.419 180.34H114.399V178.96H122.419L121.639 179.44C121.652 178.76 121.512 178.153 121.219 177.62C120.925 177.087 120.519 176.673 119.999 176.38C119.492 176.073 118.899 175.92 118.219 175.92C117.552 175.92 116.959 176.073 116.439 176.38C115.919 176.673 115.512 177.093 115.219 177.64C114.925 178.173 114.779 178.787 114.779 179.48V179.8C114.779 180.507 114.939 181.14 115.259 181.7C115.592 182.247 116.052 182.673 116.639 182.98C117.225 183.287 117.899 183.44 118.659 183.44C119.285 183.44 119.852 183.333 120.359 183.12C120.879 182.907 121.332 182.587 121.719 182.16L122.779 183.4C122.299 183.96 121.699 184.387 120.979 184.68C120.272 184.973 119.479 185.12 118.599 185.12ZM130.585 185.12C129.678 185.12 128.878 184.953 128.185 184.62C127.505 184.287 126.971 183.78 126.585 183.1C126.211 182.407 126.025 181.54 126.025 180.5V174.4H127.945V180.28C127.945 181.32 128.191 182.1 128.685 182.62C129.191 183.14 129.898 183.4 130.805 183.4C131.471 183.4 132.051 183.267 132.545 183C133.038 182.72 133.418 182.32 133.685 181.8C133.951 181.267 134.085 180.627 134.085 179.88V174.4H136.005V185H134.185V182.14L134.485 182.9C134.138 183.607 133.618 184.153 132.925 184.54C132.231 184.927 131.451 185.12 130.585 185.12ZM143.3 185.12C142.233 185.12 141.407 184.833 140.82 184.26C140.233 183.687 139.94 182.867 139.94 181.8V172.08H141.86V181.72C141.86 182.293 142 182.733 142.28 183.04C142.573 183.347 142.987 183.5 143.52 183.5C144.12 183.5 144.62 183.333 145.02 183L145.62 184.38C145.327 184.633 144.973 184.82 144.56 184.94C144.16 185.06 143.74 185.12 143.3 185.12ZM138.14 175.98V174.4H144.9V175.98H138.14ZM154.521 185V182.76L154.421 182.34V178.52C154.421 177.707 154.181 177.08 153.701 176.64C153.234 176.187 152.528 175.96 151.581 175.96C150.954 175.96 150.341 176.067 149.741 176.28C149.141 176.48 148.634 176.753 148.221 177.1L147.421 175.66C147.968 175.22 148.621 174.887 149.381 174.66C150.154 174.42 150.961 174.3 151.801 174.3C153.254 174.3 154.374 174.653 155.161 175.36C155.948 176.067 156.341 177.147 156.341 178.6V185H154.521ZM151.041 185.12C150.254 185.12 149.561 184.987 148.961 184.72C148.374 184.453 147.921 184.087 147.601 183.62C147.281 183.14 147.121 182.6 147.121 182C147.121 181.427 147.254 180.907 147.521 180.44C147.801 179.973 148.248 179.6 148.861 179.32C149.488 179.04 150.328 178.9 151.381 178.9H154.741V180.28H151.461C150.501 180.28 149.854 180.44 149.521 180.76C149.188 181.08 149.021 181.467 149.021 181.92C149.021 182.44 149.228 182.86 149.641 183.18C150.054 183.487 150.628 183.64 151.361 183.64C152.081 183.64 152.708 183.48 153.241 183.16C153.788 182.84 154.181 182.373 154.421 181.76L154.801 183.08C154.548 183.707 154.101 184.207 153.461 184.58C152.821 184.94 152.014 185.12 151.041 185.12ZM165.554 174.3C166.421 174.3 167.181 174.467 167.834 174.8C168.501 175.133 169.021 175.64 169.394 176.32C169.768 177 169.954 177.86 169.954 178.9V185H168.034V179.12C168.034 178.093 167.781 177.32 167.274 176.8C166.781 176.28 166.081 176.02 165.174 176.02C164.494 176.02 163.901 176.153 163.394 176.42C162.888 176.687 162.494 177.08 162.214 177.6C161.948 178.12 161.814 178.767 161.814 179.54V185H159.894V174.4H161.734V177.26L161.434 176.5C161.781 175.807 162.314 175.267 163.034 174.88C163.754 174.493 164.594 174.3 165.554 174.3Z" fill="black"/>
<rect x="253" y="83" width="25" height="25" rx="3" fill="#1A68B7"/>
<rect x="253" y="115" width="25" height="25" rx="3" fill="#FFB51B"/>
</svg>
