<svg width="304" height="206" viewBox="0 0 304 206" fill="none" xmlns="http://www.w3.org/2000/svg">
<rect width="304" height="206" rx="5" fill="white"/>
<rect x="0.5" y="0.5" width="303" height="205" rx="4.5" stroke="black" stroke-opacity="0.5"/>
<rect x="37" y="66" width="199" height="84" rx="8" fill="#E9E9E9"/>
<rect x="37" y="23" width="76" height="21" rx="8" fill="#D9D9D9"/>
<rect x="119" y="23" width="76" height="21" rx="8" fill="#D9D9D9"/>
<rect x="47" y="77" width="179" height="21" rx="8" fill="#B7B7B7"/>
<path d="M39.1 185V171H41.1V183.26H48.68V185H39.1ZM50.695 185V174.4H52.615V185H50.695ZM51.655 172.36C51.2817 172.36 50.9683 172.24 50.715 172C50.475 171.76 50.355 171.467 50.355 171.12C50.355 170.76 50.475 170.46 50.715 170.22C50.9683 169.98 51.2817 169.86 51.655 169.86C52.0283 169.86 52.335 169.98 52.575 170.22C52.8283 170.447 52.955 170.733 52.955 171.08C52.955 171.44 52.835 171.747 52.595 172C52.355 172.24 52.0417 172.36 51.655 172.36ZM60.9209 189C59.9476 189 59.0009 188.86 58.0809 188.58C57.1743 188.313 56.4343 187.927 55.8609 187.42L56.7809 185.94C57.2743 186.367 57.8809 186.7 58.6009 186.94C59.3209 187.193 60.0743 187.32 60.8609 187.32C62.1143 187.32 63.0343 187.027 63.6209 186.44C64.2076 185.853 64.5009 184.96 64.5009 183.76V181.52L64.7009 179.42L64.6009 177.3V174.4H66.4209V183.56C66.4209 185.427 65.9543 186.8 65.0209 187.68C64.0876 188.56 62.7209 189 60.9209 189ZM60.6809 184.56C59.6543 184.56 58.7343 184.347 57.9209 183.92C57.1209 183.48 56.4809 182.873 56.0009 182.1C55.5343 181.327 55.3009 180.433 55.3009 179.42C55.3009 178.393 55.5343 177.5 56.0009 176.74C56.4809 175.967 57.1209 175.367 57.9209 174.94C58.7343 174.513 59.6543 174.3 60.6809 174.3C61.5876 174.3 62.4143 174.487 63.1609 174.86C63.9076 175.22 64.5009 175.78 64.9409 176.54C65.3943 177.3 65.6209 178.26 65.6209 179.42C65.6209 180.567 65.3943 181.52 64.9409 182.28C64.5009 183.04 63.9076 183.613 63.1609 184C62.4143 184.373 61.5876 184.56 60.6809 184.56ZM60.9009 182.88C61.6076 182.88 62.2343 182.733 62.7809 182.44C63.3276 182.147 63.7543 181.74 64.0609 181.22C64.3809 180.7 64.5409 180.1 64.5409 179.42C64.5409 178.74 64.3809 178.14 64.0609 177.62C63.7543 177.1 63.3276 176.7 62.7809 176.42C62.2343 176.127 61.6076 175.98 60.9009 175.98C60.1943 175.98 59.5609 176.127 59.0009 176.42C58.4543 176.7 58.0209 177.1 57.7009 177.62C57.3943 178.14 57.2409 178.74 57.2409 179.42C57.2409 180.1 57.3943 180.7 57.7009 181.22C58.0209 181.74 58.4543 182.147 59.0009 182.44C59.5609 182.733 60.1943 182.88 60.9009 182.88ZM75.7495 174.3C76.6162 174.3 77.3762 174.467 78.0295 174.8C78.6962 175.133 79.2162 175.64 79.5895 176.32C79.9629 177 80.1495 177.86 80.1495 178.9V185H78.2295V179.12C78.2295 178.093 77.9762 177.32 77.4695 176.8C76.9762 176.28 76.2762 176.02 75.3695 176.02C74.6895 176.02 74.0962 176.153 73.5895 176.42C73.0829 176.687 72.6895 177.08 72.4095 177.6C72.1429 178.12 72.0095 178.767 72.0095 179.54V185H70.0895V170.16H72.0095V177.26L71.6295 176.5C71.9762 175.807 72.5095 175.267 73.2295 174.88C73.9495 174.493 74.7895 174.3 75.7495 174.3ZM87.3428 185.12C86.2761 185.12 85.4495 184.833 84.8628 184.26C84.2761 183.687 83.9828 182.867 83.9828 181.8V172.08H85.9028V181.72C85.9028 182.293 86.0428 182.733 86.3228 183.04C86.6161 183.347 87.0295 183.5 87.5628 183.5C88.1628 183.5 88.6628 183.333 89.0628 183L89.6628 184.38C89.3695 184.633 89.0161 184.82 88.6028 184.94C88.2028 185.06 87.7828 185.12 87.3428 185.12ZM82.1828 175.98V174.4H88.9428V175.98H82.1828ZM100.415 185V172.74H95.6152V171H107.195V172.74H102.395V185H100.415ZM108.84 185V174.4H110.68V177.28L110.5 176.56C110.793 175.827 111.286 175.267 111.98 174.88C112.673 174.493 113.526 174.3 114.54 174.3V176.16C114.46 176.147 114.38 176.14 114.3 176.14C114.233 176.14 114.166 176.14 114.1 176.14C113.073 176.14 112.26 176.447 111.66 177.06C111.06 177.673 110.76 178.56 110.76 179.72V185H108.84ZM116.906 185V174.4H118.826V185H116.906ZM117.866 172.36C117.493 172.36 117.179 172.24 116.926 172C116.686 171.76 116.566 171.467 116.566 171.12C116.566 170.76 116.686 170.46 116.926 170.22C117.179 169.98 117.493 169.86 117.866 169.86C118.239 169.86 118.546 169.98 118.786 170.22C119.039 170.447 119.166 170.733 119.166 171.08C119.166 171.44 119.046 171.747 118.806 172C118.566 172.24 118.253 172.36 117.866 172.36ZM126.132 185.12C125.065 185.12 124.239 184.833 123.652 184.26C123.065 183.687 122.772 182.867 122.772 181.8V172.08H124.692V181.72C124.692 182.293 124.832 182.733 125.112 183.04C125.405 183.347 125.819 183.5 126.352 183.5C126.952 183.5 127.452 183.333 127.852 183L128.452 184.38C128.159 184.633 127.805 184.82 127.392 184.94C126.992 185.06 126.572 185.12 126.132 185.12ZM120.972 175.98V174.4H127.732V175.98H120.972ZM137.353 185V182.76L137.253 182.34V178.52C137.253 177.707 137.013 177.08 136.533 176.64C136.066 176.187 135.36 175.96 134.413 175.96C133.786 175.96 133.173 176.067 132.573 176.28C131.973 176.48 131.466 176.753 131.053 177.1L130.253 175.66C130.8 175.22 131.453 174.887 132.213 174.66C132.986 174.42 133.793 174.3 134.633 174.3C136.086 174.3 137.206 174.653 137.993 175.36C138.78 176.067 139.173 177.147 139.173 178.6V185H137.353ZM133.873 185.12C133.086 185.12 132.393 184.987 131.793 184.72C131.206 184.453 130.753 184.087 130.433 183.62C130.113 183.14 129.953 182.6 129.953 182C129.953 181.427 130.086 180.907 130.353 180.44C130.633 179.973 131.08 179.6 131.693 179.32C132.32 179.04 133.16 178.9 134.213 178.9H137.573V180.28H134.293C133.333 180.28 132.686 180.44 132.353 180.76C132.02 181.08 131.853 181.467 131.853 181.92C131.853 182.44 132.06 182.86 132.473 183.18C132.886 183.487 133.46 183.64 134.193 183.64C134.913 183.64 135.54 183.48 136.073 183.16C136.62 182.84 137.013 182.373 137.253 181.76L137.633 183.08C137.38 183.707 136.933 184.207 136.293 184.58C135.653 184.94 134.846 185.12 133.873 185.12ZM148.386 174.3C149.253 174.3 150.013 174.467 150.666 174.8C151.333 175.133 151.853 175.64 152.226 176.32C152.6 177 152.786 177.86 152.786 178.9V185H150.866V179.12C150.866 178.093 150.613 177.32 150.106 176.8C149.613 176.28 148.913 176.02 148.006 176.02C147.326 176.02 146.733 176.153 146.226 176.42C145.72 176.687 145.326 177.08 145.046 177.6C144.78 178.12 144.646 178.767 144.646 179.54V185H142.726V174.4H144.566V177.26L144.266 176.5C144.613 175.807 145.146 175.267 145.866 174.88C146.586 174.493 147.426 174.3 148.386 174.3Z" fill="black"/>
<rect x="253" y="83" width="25" height="25" rx="3" fill="#00BBB6"/>
<rect x="253" y="115" width="25" height="25" rx="3" fill="#FF3030"/>
</svg>
